G04 #@! TF.GenerationSoftware,KiCad,Pcbnew,7.0.9*
G04 #@! TF.CreationDate,2024-02-06T22:04:58+09:00*
G04 #@! TF.ProjectId,bottom_plate,626f7474-6f6d-45f7-906c-6174652e6b69,rev?*
G04 #@! TF.SameCoordinates,Original*
G04 #@! TF.FileFunction,Legend,Top*
G04 #@! TF.FilePolarity,Positive*
%FSLAX46Y46*%
G04 Gerber Fmt 4.6, Leading zero omitted, Abs format (unit mm)*
G04 Created by KiCad (PCBNEW 7.0.9) date 2024-02-06 22:04:58*
%MOMM*%
%LPD*%
G01*
G04 APERTURE LIST*
%ADD10C,0.150000*%
G04 APERTURE END LIST*
D10*
X40337798Y-113754819D02*
X40337798Y-114469104D01*
X40337798Y-114469104D02*
X40385417Y-114611961D01*
X40385417Y-114611961D02*
X40480655Y-114707200D01*
X40480655Y-114707200D02*
X40623512Y-114754819D01*
X40623512Y-114754819D02*
X40718750Y-114754819D01*
X39385417Y-114754819D02*
X39861607Y-114754819D01*
X39861607Y-114754819D02*
X39861607Y-113754819D01*
X38480655Y-114659580D02*
X38528274Y-114707200D01*
X38528274Y-114707200D02*
X38671131Y-114754819D01*
X38671131Y-114754819D02*
X38766369Y-114754819D01*
X38766369Y-114754819D02*
X38909226Y-114707200D01*
X38909226Y-114707200D02*
X39004464Y-114611961D01*
X39004464Y-114611961D02*
X39052083Y-114516723D01*
X39052083Y-114516723D02*
X39099702Y-114326247D01*
X39099702Y-114326247D02*
X39099702Y-114183390D01*
X39099702Y-114183390D02*
X39052083Y-113992914D01*
X39052083Y-113992914D02*
X39004464Y-113897676D01*
X39004464Y-113897676D02*
X38909226Y-113802438D01*
X38909226Y-113802438D02*
X38766369Y-113754819D01*
X38766369Y-113754819D02*
X38671131Y-113754819D01*
X38671131Y-113754819D02*
X38528274Y-113802438D01*
X38528274Y-113802438D02*
X38480655Y-113850057D01*
X37766369Y-113754819D02*
X37766369Y-114469104D01*
X37766369Y-114469104D02*
X37813988Y-114611961D01*
X37813988Y-114611961D02*
X37909226Y-114707200D01*
X37909226Y-114707200D02*
X38052083Y-114754819D01*
X38052083Y-114754819D02*
X38147321Y-114754819D01*
X36813988Y-114754819D02*
X37290178Y-114754819D01*
X37290178Y-114754819D02*
X37290178Y-113754819D01*
X35909226Y-114659580D02*
X35956845Y-114707200D01*
X35956845Y-114707200D02*
X36099702Y-114754819D01*
X36099702Y-114754819D02*
X36194940Y-114754819D01*
X36194940Y-114754819D02*
X36337797Y-114707200D01*
X36337797Y-114707200D02*
X36433035Y-114611961D01*
X36433035Y-114611961D02*
X36480654Y-114516723D01*
X36480654Y-114516723D02*
X36528273Y-114326247D01*
X36528273Y-114326247D02*
X36528273Y-114183390D01*
X36528273Y-114183390D02*
X36480654Y-113992914D01*
X36480654Y-113992914D02*
X36433035Y-113897676D01*
X36433035Y-113897676D02*
X36337797Y-113802438D01*
X36337797Y-113802438D02*
X36194940Y-113754819D01*
X36194940Y-113754819D02*
X36099702Y-113754819D01*
X36099702Y-113754819D02*
X35956845Y-113802438D01*
X35956845Y-113802438D02*
X35909226Y-113850057D01*
X35194940Y-113754819D02*
X35194940Y-114469104D01*
X35194940Y-114469104D02*
X35242559Y-114611961D01*
X35242559Y-114611961D02*
X35337797Y-114707200D01*
X35337797Y-114707200D02*
X35480654Y-114754819D01*
X35480654Y-114754819D02*
X35575892Y-114754819D01*
X34242559Y-114754819D02*
X34718749Y-114754819D01*
X34718749Y-114754819D02*
X34718749Y-113754819D01*
X33337797Y-114659580D02*
X33385416Y-114707200D01*
X33385416Y-114707200D02*
X33528273Y-114754819D01*
X33528273Y-114754819D02*
X33623511Y-114754819D01*
X33623511Y-114754819D02*
X33766368Y-114707200D01*
X33766368Y-114707200D02*
X33861606Y-114611961D01*
X33861606Y-114611961D02*
X33909225Y-114516723D01*
X33909225Y-114516723D02*
X33956844Y-114326247D01*
X33956844Y-114326247D02*
X33956844Y-114183390D01*
X33956844Y-114183390D02*
X33909225Y-113992914D01*
X33909225Y-113992914D02*
X33861606Y-113897676D01*
X33861606Y-113897676D02*
X33766368Y-113802438D01*
X33766368Y-113802438D02*
X33623511Y-113754819D01*
X33623511Y-113754819D02*
X33528273Y-113754819D01*
X33528273Y-113754819D02*
X33385416Y-113802438D01*
X33385416Y-113802438D02*
X33337797Y-113850057D01*
X32623511Y-113754819D02*
X32623511Y-114469104D01*
X32623511Y-114469104D02*
X32671130Y-114611961D01*
X32671130Y-114611961D02*
X32766368Y-114707200D01*
X32766368Y-114707200D02*
X32909225Y-114754819D01*
X32909225Y-114754819D02*
X33004463Y-114754819D01*
X31671130Y-114754819D02*
X32147320Y-114754819D01*
X32147320Y-114754819D02*
X32147320Y-113754819D01*
X30766368Y-114659580D02*
X30813987Y-114707200D01*
X30813987Y-114707200D02*
X30956844Y-114754819D01*
X30956844Y-114754819D02*
X31052082Y-114754819D01*
X31052082Y-114754819D02*
X31194939Y-114707200D01*
X31194939Y-114707200D02*
X31290177Y-114611961D01*
X31290177Y-114611961D02*
X31337796Y-114516723D01*
X31337796Y-114516723D02*
X31385415Y-114326247D01*
X31385415Y-114326247D02*
X31385415Y-114183390D01*
X31385415Y-114183390D02*
X31337796Y-113992914D01*
X31337796Y-113992914D02*
X31290177Y-113897676D01*
X31290177Y-113897676D02*
X31194939Y-113802438D01*
X31194939Y-113802438D02*
X31052082Y-113754819D01*
X31052082Y-113754819D02*
X30956844Y-113754819D01*
X30956844Y-113754819D02*
X30813987Y-113802438D01*
X30813987Y-113802438D02*
X30766368Y-113850057D01*
M02*
