G04 #@! TF.GenerationSoftware,KiCad,Pcbnew,7.0.9*
G04 #@! TF.CreationDate,2024-02-06T22:04:58+09:00*
G04 #@! TF.ProjectId,bottom_plate,626f7474-6f6d-45f7-906c-6174652e6b69,rev?*
G04 #@! TF.SameCoordinates,Original*
G04 #@! TF.FileFunction,Profile,NP*
%FSLAX46Y46*%
G04 Gerber Fmt 4.6, Leading zero omitted, Abs format (unit mm)*
G04 Created by KiCad (PCBNEW 7.0.9) date 2024-02-06 22:04:58*
%MOMM*%
%LPD*%
G01*
G04 APERTURE LIST*
G04 #@! TA.AperFunction,Profile*
%ADD10C,0.100000*%
G04 #@! TD*
G04 #@! TA.AperFunction,Profile*
%ADD11C,0.010000*%
G04 #@! TD*
G04 APERTURE END LIST*
D10*
X328625000Y-20250000D02*
G75*
G03*
X325625000Y-17250000I-3000000J0D01*
G01*
X17275000Y-17250000D02*
G75*
G03*
X14275000Y-20250000I0J-3000000D01*
G01*
X14275000Y-113050000D02*
G75*
G03*
X17275000Y-116050000I3000000J0D01*
G01*
X155143500Y-30000000D02*
G75*
G03*
X154143560Y-29000000I-1000000J0D01*
G01*
X141143600Y-36000000D02*
G75*
G03*
X142143560Y-37000000I1000000J0D01*
G01*
X17275000Y-116050000D02*
X325625000Y-116050000D01*
X154143560Y-36999960D02*
G75*
G03*
X155143560Y-36000000I40J999960D01*
G01*
X328625000Y-113050000D02*
X328625000Y-20250000D01*
X154143560Y-37000000D02*
X142143560Y-37000000D01*
X141143560Y-36000000D02*
X141143560Y-30000000D01*
X325625000Y-116050000D02*
G75*
G03*
X328625000Y-113050000I0J3000000D01*
G01*
X142143560Y-29000000D02*
X154143560Y-29000000D01*
X142143560Y-28999960D02*
G75*
G03*
X141143560Y-30000000I40J-1000040D01*
G01*
X14275000Y-20250000D02*
X14275000Y-113050000D01*
X155143560Y-30000000D02*
X155143560Y-36000000D01*
X325625000Y-17250000D02*
X17275000Y-17250000D01*
D11*
X17175000Y-21550000D02*
G75*
G03*
X17175000Y-21550000I-1100000J0D01*
G01*
X17175000Y-66650000D02*
G75*
G03*
X17175000Y-66650000I-1100000J0D01*
G01*
X17175000Y-111750000D02*
G75*
G03*
X17175000Y-111750000I-1100000J0D01*
G01*
X327925000Y-21550000D02*
G75*
G03*
X327925000Y-21550000I-1100000J0D01*
G01*
X327925000Y-66650000D02*
G75*
G03*
X327925000Y-66650000I-1100000J0D01*
G01*
X327925000Y-111750000D02*
G75*
G03*
X327925000Y-111750000I-1100000J0D01*
G01*
M02*
