G04 #@! TF.GenerationSoftware,KiCad,Pcbnew,7.0.9*
G04 #@! TF.CreationDate,2024-02-06T21:39:52+09:00*
G04 #@! TF.ProjectId,tijuana,74696a75-616e-4612-9e6b-696361645f70,rev?*
G04 #@! TF.SameCoordinates,Original*
G04 #@! TF.FileFunction,Copper,L1,Top*
G04 #@! TF.FilePolarity,Positive*
%FSLAX46Y46*%
G04 Gerber Fmt 4.6, Leading zero omitted, Abs format (unit mm)*
G04 Created by KiCad (PCBNEW 7.0.9) date 2024-02-06 21:39:52*
%MOMM*%
%LPD*%
G01*
G04 APERTURE LIST*
G04 #@! TA.AperFunction,ComponentPad*
%ADD10O,1.600000X1.300000*%
G04 #@! TD*
G04 #@! TA.AperFunction,ComponentPad*
%ADD11C,3.100000*%
G04 #@! TD*
G04 #@! TA.AperFunction,ComponentPad*
%ADD12C,1.250000*%
G04 #@! TD*
G04 #@! TA.AperFunction,SMDPad,CuDef*
%ADD13O,3.500000X1.500000*%
G04 #@! TD*
G04 #@! TA.AperFunction,SMDPad,CuDef*
%ADD14O,1.500000X3.500000*%
G04 #@! TD*
G04 #@! TA.AperFunction,ViaPad*
%ADD15C,0.800000*%
G04 #@! TD*
G04 #@! TA.AperFunction,Conductor*
%ADD16C,0.500000*%
G04 #@! TD*
G04 #@! TA.AperFunction,Conductor*
%ADD17C,0.250000*%
G04 #@! TD*
G04 APERTURE END LIST*
D10*
X32900000Y-106800000D03*
X37900000Y-106800000D03*
X35400000Y-106800000D03*
D11*
X40950000Y-99300000D03*
X29850000Y-99300000D03*
D10*
X32900000Y-92300000D03*
X37900000Y-92300000D03*
D12*
X140520000Y-18920000D03*
D13*
X139520000Y-18920000D03*
D12*
X140520000Y-21440000D03*
D13*
X139520000Y-21440000D03*
D12*
X140520000Y-23980000D03*
D13*
X139520000Y-23980000D03*
D12*
X140520000Y-26510000D03*
D13*
X139520000Y-26510000D03*
D12*
X140520000Y-29060000D03*
D13*
X139520000Y-29060000D03*
D12*
X140520000Y-31600000D03*
D13*
X139520000Y-31600000D03*
D12*
X140520000Y-34140000D03*
D13*
X139520000Y-34140000D03*
D12*
X140520000Y-36680000D03*
D13*
X139520000Y-36680000D03*
D12*
X140520000Y-39220000D03*
D13*
X139520000Y-39220000D03*
D12*
X143060000Y-39220000D03*
D14*
X143060000Y-40220000D03*
D12*
X145610000Y-39220000D03*
D14*
X145610000Y-40220000D03*
D12*
X148140334Y-39220000D03*
D14*
X148140334Y-40220000D03*
D12*
X150690334Y-39220000D03*
D14*
X150690334Y-40220000D03*
D12*
X153220000Y-39220000D03*
D14*
X153220000Y-40220000D03*
D12*
X155760000Y-39204341D03*
D13*
X156760000Y-39204341D03*
D12*
X155760000Y-36680000D03*
D13*
X156760000Y-36680000D03*
D12*
X155760000Y-34140000D03*
D13*
X156760000Y-34140000D03*
D12*
X155760000Y-31600000D03*
D13*
X156760000Y-31600000D03*
D12*
X155760000Y-29060000D03*
D13*
X156760000Y-29060000D03*
D12*
X155760000Y-26510000D03*
D13*
X156760000Y-26510000D03*
D12*
X155760000Y-23980000D03*
D13*
X156760000Y-23980000D03*
D12*
X155760000Y-21440000D03*
D13*
X156760000Y-21440000D03*
D12*
X155760000Y-18920000D03*
D13*
X156760000Y-18920000D03*
D10*
X304975600Y-106800000D03*
X309975600Y-106800000D03*
X307475600Y-106800000D03*
D11*
X313025600Y-99300000D03*
X301925600Y-99300000D03*
D10*
X304975600Y-92300000D03*
X309975600Y-92300000D03*
X168950000Y-35600000D03*
X173950000Y-35600000D03*
X171450000Y-35600000D03*
D11*
X177000000Y-28100000D03*
X165900000Y-28100000D03*
D10*
X168950000Y-21100000D03*
X173950000Y-21100000D03*
D15*
X202162521Y-83906500D03*
X177249642Y-45864922D03*
X24663766Y-18454507D03*
X40934319Y-21584553D03*
X157338000Y-61862000D03*
X316989920Y-59339150D03*
X93163629Y-39843309D03*
X73166000Y-39935116D03*
X187690607Y-61862000D03*
X181095000Y-83957300D03*
X220187013Y-62576600D03*
X215135000Y-64364495D03*
X273387727Y-63732305D03*
X292951649Y-58598500D03*
X320077100Y-40611100D03*
X30067567Y-44930020D03*
X254659093Y-65302140D03*
X28684900Y-59114300D03*
X97581753Y-39884712D03*
X202483991Y-43181581D03*
X271917800Y-77611000D03*
X320082245Y-26978453D03*
X158485597Y-44291609D03*
X131937313Y-48378396D03*
X54644427Y-39877000D03*
X73576200Y-77488100D03*
X164003700Y-61862000D03*
X49291816Y-61259500D03*
X160174200Y-24370900D03*
X160140676Y-41112348D03*
X152003002Y-42575500D03*
X78648091Y-21305395D03*
X179325761Y-41403513D03*
X58182707Y-21312450D03*
X216820459Y-26517700D03*
X157320000Y-43300000D03*
X104223370Y-21298033D03*
X277259082Y-38927186D03*
X195750700Y-29996900D03*
X132236922Y-21295540D03*
X195756311Y-41399189D03*
X37755645Y-24225372D03*
X23714900Y-28481660D03*
X131925870Y-45832400D03*
X260917241Y-42545376D03*
X60264972Y-41188861D03*
X80338639Y-41188861D03*
X198362797Y-59961300D03*
X96188516Y-41182022D03*
X237676500Y-54941800D03*
X115292800Y-43011900D03*
X160272011Y-59951147D03*
X320584173Y-42480473D03*
X294991730Y-57100131D03*
X229100319Y-45859225D03*
X244256452Y-42545376D03*
X180585000Y-79654700D03*
X238525237Y-61410300D03*
X198368300Y-79501471D03*
X144149797Y-65940247D03*
X287540400Y-58609600D03*
X253233680Y-61859300D03*
X202312800Y-69497800D03*
X215759673Y-68753400D03*
X234753400Y-64566206D03*
X300200000Y-21300000D03*
X80543822Y-65975500D03*
X100186712Y-62830355D03*
X163296668Y-36654970D03*
X305053600Y-44050347D03*
X162507100Y-62711500D03*
X66217210Y-62834941D03*
X123987417Y-69480900D03*
X273324977Y-58607010D03*
X319087500Y-78922100D03*
X161829912Y-36655232D03*
X161779950Y-75761652D03*
X47625000Y-79201300D03*
X183315800Y-97475015D03*
X298674500Y-57879840D03*
X227894591Y-85251903D03*
X157579305Y-79928211D03*
X159207436Y-97407245D03*
X221723500Y-85241000D03*
X281288642Y-82488272D03*
X299926291Y-38324500D03*
X137562587Y-85189945D03*
X161443006Y-22269500D03*
X175264344Y-97448858D03*
X199347600Y-95928700D03*
X274467940Y-22139794D03*
X102524210Y-83509955D03*
X253576412Y-82459356D03*
X157787286Y-66432899D03*
X145730938Y-67300000D03*
X177162988Y-103018436D03*
X280754244Y-43729100D03*
X88254896Y-28695974D03*
X303715200Y-21882823D03*
X78790444Y-58284860D03*
X195847600Y-80378800D03*
X196281400Y-103014937D03*
X43285427Y-62520034D03*
X224824593Y-80383979D03*
X223520444Y-25637184D03*
X76556021Y-38577500D03*
X62725927Y-58296263D03*
X158048981Y-103021432D03*
X200227328Y-64364495D03*
X196112797Y-64331561D03*
X261693750Y-23621400D03*
X208538600Y-25668200D03*
X154775695Y-67292509D03*
X245306262Y-56699500D03*
X37932074Y-26644144D03*
X46434000Y-38577500D03*
X241703975Y-23621400D03*
X228014262Y-87915137D03*
X280070183Y-85605086D03*
X300620800Y-56975100D03*
X250546484Y-90479689D03*
X319227600Y-39166300D03*
X89228049Y-87150542D03*
X108159205Y-85668902D03*
X302723400Y-46187837D03*
X302745083Y-56972800D03*
X283675500Y-57100000D03*
X24485900Y-38577500D03*
X239428045Y-49324858D03*
X98273720Y-60075308D03*
X159273900Y-74606133D03*
X144105900Y-88349704D03*
X84662687Y-60032795D03*
X137102800Y-32858820D03*
X134562070Y-32864108D03*
X32921790Y-42774849D03*
X41922000Y-42792354D03*
X74519930Y-44701800D03*
X79618400Y-44696562D03*
X90632200Y-41913361D03*
X100396451Y-47088793D03*
X109800165Y-43120875D03*
X118691300Y-48207180D03*
X165169300Y-44365736D03*
X157592627Y-45014000D03*
X316515770Y-38324500D03*
X316300000Y-21900000D03*
X287449200Y-42252437D03*
X280707261Y-42252437D03*
X192888083Y-55336828D03*
X206779248Y-55403617D03*
X158116318Y-64916778D03*
X164003700Y-64916778D03*
X116341114Y-63961128D03*
X126955415Y-64693600D03*
X85899887Y-61112304D03*
X80658700Y-61114953D03*
X61586152Y-61441000D03*
X68709380Y-61446040D03*
X22407255Y-88694770D03*
X56728213Y-90159589D03*
X70609288Y-85301771D03*
X89228049Y-88639587D03*
X128708497Y-81931900D03*
X145638400Y-84080400D03*
X222208100Y-67438011D03*
X212228789Y-64364495D03*
X228629054Y-63842200D03*
X242382200Y-65853458D03*
X302510706Y-61473677D03*
X292102149Y-59448000D03*
X251436300Y-88563200D03*
X265282468Y-88563200D03*
X193053470Y-96653200D03*
X203418800Y-96665800D03*
X194198115Y-86462264D03*
X179619300Y-77926900D03*
X40006400Y-24143700D03*
X163283844Y-59200034D03*
X39199119Y-57126600D03*
X125859938Y-80182383D03*
X127943000Y-57935600D03*
X37947000Y-56402100D03*
X211002200Y-81989800D03*
X207224200Y-89239300D03*
X52332489Y-25272200D03*
X158122656Y-40943380D03*
X75695700Y-28536486D03*
X227665100Y-50148341D03*
X218597451Y-42625783D03*
X100940800Y-66697000D03*
X241657700Y-59707450D03*
X241923314Y-48114389D03*
X95769625Y-27111300D03*
X95046615Y-57851100D03*
X247728968Y-58598500D03*
X131564001Y-84234455D03*
X124711917Y-60549994D03*
X237994391Y-43269876D03*
X137628305Y-90358074D03*
X267589907Y-59319085D03*
X267581700Y-56352800D03*
X278401100Y-35244700D03*
X112776476Y-31754061D03*
X156361500Y-105082100D03*
X143256400Y-68396728D03*
X263406600Y-47632500D03*
X116749000Y-61276200D03*
X143243338Y-94289400D03*
X120351800Y-63118654D03*
X258155520Y-39652900D03*
X137294460Y-50230286D03*
X137339000Y-56985300D03*
X282545337Y-54682080D03*
X131915154Y-32635782D03*
X161013800Y-77894300D03*
X195770800Y-98972700D03*
X137122699Y-35414938D03*
X178405900Y-94271100D03*
X159324700Y-38162100D03*
X141020000Y-46048400D03*
X147116321Y-52318064D03*
X164444800Y-52736400D03*
X163720300Y-46369500D03*
X236936400Y-59055600D03*
X163279200Y-57710500D03*
X227665100Y-51386588D03*
X257277300Y-106800000D03*
D16*
X93120738Y-39886200D02*
X53545900Y-39886200D01*
X30079698Y-44942151D02*
X33457429Y-44942151D01*
X293580110Y-60617000D02*
X303489402Y-60617000D01*
X30067567Y-44930020D02*
X30079698Y-44942151D01*
X320077100Y-40611100D02*
X320077100Y-26983598D01*
X202450672Y-43214900D02*
X178315385Y-43214900D01*
X215135000Y-64364495D02*
X215135000Y-63536173D01*
X49291816Y-62793331D02*
X49291816Y-61259500D01*
X34500000Y-44942151D02*
X35478646Y-44942151D01*
X57744143Y-77488100D02*
X73576200Y-77488100D01*
X176358131Y-43214900D02*
X178315385Y-43214900D01*
X34500000Y-58232370D02*
X34500000Y-62793018D01*
X46946581Y-39886200D02*
X53545900Y-39886200D01*
X316978670Y-59327900D02*
X316989920Y-59339150D01*
X97580265Y-39886200D02*
X93206520Y-39886200D01*
X28684900Y-59114300D02*
X33000000Y-59114300D01*
X254659093Y-61601116D02*
X254659093Y-65302140D01*
X46319600Y-44311892D02*
X46319600Y-40513181D01*
X273387761Y-61601570D02*
X273387727Y-63732305D01*
X288582939Y-59227362D02*
X288582939Y-59344976D01*
X52853423Y-69450100D02*
X56487039Y-69450100D01*
X21267235Y-39739300D02*
X29439386Y-39739300D01*
X181095000Y-83957300D02*
X181095000Y-81857914D01*
X52223600Y-61917496D02*
X52223600Y-68820277D01*
X306059622Y-59327900D02*
X316978670Y-59327900D01*
X317001170Y-59327900D02*
X316989920Y-59339150D01*
X178315385Y-43214900D02*
X178209278Y-43214901D01*
X132827596Y-47749916D02*
X132827596Y-40514631D01*
X216179063Y-62576600D02*
X250059669Y-62576600D01*
X132199165Y-39886200D02*
X97583241Y-39886200D01*
X322213202Y-59327900D02*
X317001170Y-59327900D01*
X40934319Y-21584553D02*
X40934281Y-19083548D01*
X273387727Y-63732305D02*
X283357790Y-63732305D01*
X250675969Y-63192900D02*
X250675969Y-64675500D01*
X292951649Y-58598500D02*
X292951649Y-59988539D01*
X202483991Y-43181581D02*
X202450672Y-43214900D01*
X35128184Y-63421200D02*
X48663947Y-63421200D01*
X131937313Y-48378396D02*
X132199129Y-48378392D01*
X187690607Y-61862000D02*
X164003700Y-61862000D01*
X187690607Y-61862000D02*
X207840377Y-61862000D01*
X292951649Y-58598500D02*
X289211801Y-58598500D01*
X33457429Y-44942151D02*
X34500000Y-44942151D01*
X93163629Y-39843309D02*
X93120738Y-39886200D01*
X97581753Y-39884712D02*
X97580265Y-39886200D01*
X20638200Y-19084764D02*
X20638200Y-39110265D01*
X30067567Y-40367481D02*
X30067567Y-44930020D01*
X33000000Y-59114300D02*
X33618070Y-59114300D01*
X214175427Y-62576600D02*
X216179063Y-62576600D01*
X33000000Y-59114300D02*
X33385700Y-59114300D01*
X251233196Y-65302355D02*
X254658878Y-65302355D01*
X201532903Y-81228800D02*
X181724114Y-81228800D01*
X21268457Y-18454507D02*
X24663766Y-18454507D01*
X34500000Y-58232370D02*
X34500000Y-45920797D01*
X271917800Y-77611000D02*
X274089392Y-77611000D01*
X320077100Y-40611100D02*
X322213768Y-40611100D01*
X24663766Y-18454507D02*
X40305231Y-18454507D01*
X202162521Y-83906500D02*
X202162521Y-81858418D01*
X274718100Y-76982292D02*
X274718100Y-67591967D01*
X187675991Y-61862000D02*
X187549591Y-61988400D01*
X177249642Y-45864922D02*
X177249642Y-44280643D01*
X209565548Y-62576600D02*
X214175427Y-62576600D01*
X30067567Y-44930020D02*
X29986849Y-44849302D01*
X273387727Y-64380164D02*
X273387727Y-63732305D01*
X164003700Y-61862000D02*
X157338000Y-61862000D01*
X254658878Y-65302355D02*
X254659093Y-65302140D01*
X158485597Y-44291609D02*
X158485593Y-43845621D01*
X322842957Y-41240289D02*
X322842957Y-58698145D01*
X53545900Y-39886200D02*
X53712177Y-39886200D01*
X159116309Y-43214900D02*
X176358131Y-43214900D01*
X187690607Y-61862000D02*
X187675991Y-61862000D01*
X283987300Y-63102795D02*
X283987300Y-60603012D01*
X35478646Y-44942151D02*
X45689341Y-44942151D01*
X97583241Y-39886200D02*
X97581753Y-39884712D01*
X304574943Y-60167354D02*
X304958149Y-59784146D01*
X57116100Y-70079161D02*
X57116100Y-76860057D01*
X284616412Y-59973900D02*
X287954015Y-59973900D01*
X49315473Y-61283157D02*
X51589261Y-61283157D01*
X187690607Y-61862000D02*
X187817007Y-61988400D01*
X255288909Y-60971300D02*
X272757502Y-60971300D01*
X93206520Y-39886200D02*
X93163629Y-39843309D01*
X132827600Y-40514631D02*
G75*
G03*
X132199165Y-39886200I-628400J31D01*
G01*
X52223600Y-68820277D02*
G75*
G03*
X52853423Y-69450100I629800J-23D01*
G01*
X20638200Y-39110265D02*
G75*
G03*
X21267235Y-39739300I629000J-35D01*
G01*
X273387771Y-64380164D02*
G75*
G03*
X273890630Y-65594275I1717029J-36D01*
G01*
X57116100Y-70079161D02*
G75*
G03*
X56487039Y-69450100I-629100J-39D01*
G01*
X322213202Y-59327857D02*
G75*
G03*
X322842957Y-58698145I-2J629757D01*
G01*
X35478646Y-44942200D02*
G75*
G03*
X34500000Y-45920797I-46J-978600D01*
G01*
X46946581Y-39886200D02*
G75*
G03*
X46319600Y-40513181I19J-627000D01*
G01*
X52223543Y-61917496D02*
G75*
G03*
X51589261Y-61283157I-634343J-4D01*
G01*
X292951600Y-59988539D02*
G75*
G03*
X293580110Y-60617000I628500J39D01*
G01*
X303489402Y-60616997D02*
G75*
G03*
X304574943Y-60167354I-2J1535197D01*
G01*
X250676000Y-63192900D02*
G75*
G03*
X250059669Y-62576600I-616300J0D01*
G01*
X208611582Y-62181440D02*
G75*
G03*
X207840377Y-61862000I-771182J-771160D01*
G01*
X48663947Y-63421216D02*
G75*
G03*
X49291816Y-62793331I-47J627916D01*
G01*
X287954015Y-59973939D02*
G75*
G03*
X288582939Y-59344976I-15J628939D01*
G01*
X181724114Y-81228800D02*
G75*
G03*
X181095000Y-81857914I-14J-629100D01*
G01*
X289211801Y-58598539D02*
G75*
G03*
X288582939Y-59227362I-1J-628861D01*
G01*
X34499999Y-62793018D02*
G75*
G03*
X35128183Y-63421201I628201J18D01*
G01*
X274089392Y-77611000D02*
G75*
G03*
X274718100Y-76982292I8J628700D01*
G01*
X202162500Y-81858418D02*
G75*
G03*
X201532903Y-81228800I-629600J18D01*
G01*
X159116309Y-43214893D02*
G75*
G03*
X158485593Y-43845621I-9J-630707D01*
G01*
X35128183Y-63421201D02*
X35128184Y-63421200D01*
X250675915Y-64675500D02*
G75*
G03*
X251233196Y-65302355I633785J2300D01*
G01*
X34500000Y-60228600D02*
G75*
G03*
X33385700Y-59114300I-1114300J0D01*
G01*
X208611553Y-62181469D02*
G75*
G03*
X209565548Y-62576600I953947J953969D01*
G01*
X273387800Y-61601570D02*
G75*
G03*
X272757502Y-60971300I-630300J-30D01*
G01*
X306059622Y-59327911D02*
G75*
G03*
X304958149Y-59784146I-22J-1557689D01*
G01*
X322843000Y-41240289D02*
G75*
G03*
X322213768Y-40611100I-629200J-11D01*
G01*
X283357790Y-63732300D02*
G75*
G03*
X283987300Y-63102795I10J629500D01*
G01*
X215135000Y-63536173D02*
G75*
G03*
X214175427Y-62576600I-959600J-27D01*
G01*
X132199129Y-48378396D02*
G75*
G03*
X132827596Y-47749916I-29J628496D01*
G01*
X57116100Y-76860057D02*
G75*
G03*
X57744143Y-77488100I628000J-43D01*
G01*
X30067600Y-40367481D02*
G75*
G03*
X29439386Y-39739300I-628200J-19D01*
G01*
X21268457Y-18454500D02*
G75*
G03*
X20638200Y-19084764I43J-630300D01*
G01*
X320082245Y-26978500D02*
G75*
G03*
X320077100Y-26983598I-45J-5100D01*
G01*
X177249600Y-44106411D02*
G75*
G03*
X176358131Y-43214900I-891500J11D01*
G01*
X216179063Y-62576600D02*
G75*
G03*
X215135000Y-63620663I37J-1044100D01*
G01*
X274718111Y-67591967D02*
G75*
G03*
X273890628Y-65594277I-2825211J-33D01*
G01*
X49291843Y-61259500D02*
G75*
G03*
X49315473Y-61283157I23657J0D01*
G01*
X178209278Y-43214938D02*
G75*
G03*
X177249638Y-44174594I22J-959662D01*
G01*
X34499949Y-45984722D02*
G75*
G03*
X33457429Y-44942151I-1042549J22D01*
G01*
X40934293Y-19083548D02*
G75*
G03*
X40305231Y-18454507I-629093J-52D01*
G01*
X255288909Y-60971293D02*
G75*
G03*
X254659093Y-61601116I-9J-629807D01*
G01*
X33618070Y-59114300D02*
G75*
G03*
X34500000Y-58232370I30J881900D01*
G01*
X284616412Y-59973900D02*
G75*
G03*
X283987300Y-60603012I-12J-629100D01*
G01*
X45689341Y-44942200D02*
G75*
G03*
X46319600Y-44311892I-41J630300D01*
G01*
X152003002Y-42575500D02*
X156169783Y-42575500D01*
X155740000Y-18900000D02*
X156740000Y-18900000D01*
X157426342Y-42054973D02*
X159511535Y-42054973D01*
X160140660Y-41425880D02*
X160140676Y-41112348D01*
X156740000Y-18900000D02*
X159545111Y-18900000D01*
X160174200Y-19529089D02*
X160174200Y-24370900D01*
X160120576Y-41112348D02*
X160071209Y-41161715D01*
X160140676Y-41112348D02*
X160120576Y-41112348D01*
X157426342Y-42054994D02*
G75*
G03*
X156870526Y-42285236I-42J-785906D01*
G01*
X160174200Y-19529089D02*
G75*
G03*
X159545111Y-18900000I-629100J-11D01*
G01*
X156169783Y-42575523D02*
G75*
G03*
X156870525Y-42285235I-83J991123D01*
G01*
X159511535Y-42054960D02*
G75*
G03*
X160140660Y-41425880I-35J629160D01*
G01*
D17*
X156740000Y-26490000D02*
X155740000Y-26490000D01*
X104223370Y-21298033D02*
X132234429Y-21298033D01*
X216815477Y-26522682D02*
X196222686Y-26522682D01*
X195217657Y-26522682D02*
X195234147Y-26522681D01*
X232284002Y-34607100D02*
X224657627Y-34607100D01*
X232743700Y-38468761D02*
X232743700Y-35066798D01*
X160570077Y-26490000D02*
X156740000Y-26490000D01*
X190218916Y-25515400D02*
X162235146Y-25515400D01*
X157320000Y-43300000D02*
X157320000Y-43097836D01*
X277257868Y-38928400D02*
X233203339Y-38928400D01*
X179325761Y-41403513D02*
X179325753Y-42179976D01*
X195750700Y-29996900D02*
X195750700Y-26994668D01*
X191327251Y-26278680D02*
X190807999Y-25759412D01*
X178865824Y-42639900D02*
X157777936Y-42639900D01*
X277259082Y-38927186D02*
X277257868Y-38928400D01*
X78648091Y-21305395D02*
X104216008Y-21305395D01*
X58182707Y-21312450D02*
X78641036Y-21312450D01*
X224198200Y-34147673D02*
X224198200Y-26977347D01*
X179325761Y-41403513D02*
X195751987Y-41403513D01*
X223738553Y-26517700D02*
X216820459Y-26517700D01*
X161646868Y-25759076D02*
X161160534Y-26245421D01*
X195217657Y-26522682D02*
X191916309Y-26522682D01*
X196222686Y-26522682D02*
X195217657Y-26522682D01*
X224198200Y-34147673D02*
G75*
G03*
X224657627Y-34607100I459400J-27D01*
G01*
X178865824Y-42639953D02*
G75*
G03*
X179325753Y-42179976I-24J459953D01*
G01*
X78641036Y-21312491D02*
G75*
G03*
X78648091Y-21305395I-36J7091D01*
G01*
X216815477Y-26522659D02*
G75*
G03*
X216820459Y-26517700I23J4959D01*
G01*
X232743700Y-35066798D02*
G75*
G03*
X232284002Y-34607100I-459700J-2D01*
G01*
X157777936Y-42639900D02*
G75*
G03*
X157320000Y-43097836I-36J-457900D01*
G01*
X160570077Y-26489990D02*
G75*
G03*
X161160534Y-26245421I23J834990D01*
G01*
X104216008Y-21305370D02*
G75*
G03*
X104223370Y-21298033I-8J7370D01*
G01*
X224198200Y-26977347D02*
G75*
G03*
X223738553Y-26517700I-459600J47D01*
G01*
X232743700Y-38468761D02*
G75*
G03*
X233203339Y-38928400I459600J-39D01*
G01*
X162235146Y-25515420D02*
G75*
G03*
X161646868Y-25759076I-46J-831880D01*
G01*
X190807996Y-25759415D02*
G75*
G03*
X190218916Y-25515400I-589096J-589085D01*
G01*
X195751987Y-41403511D02*
G75*
G03*
X195756311Y-41399189I13J4311D01*
G01*
X195750719Y-27039216D02*
G75*
G03*
X195234147Y-26522681I-516519J16D01*
G01*
X132234429Y-21298022D02*
G75*
G03*
X132236922Y-21295540I-29J2522D01*
G01*
X196222686Y-26522700D02*
G75*
G03*
X195750700Y-26994668I14J-472000D01*
G01*
X191327238Y-26278693D02*
G75*
G03*
X191916309Y-26522682I589062J589093D01*
G01*
X23714900Y-28481660D02*
X23714900Y-24684136D01*
X24173664Y-24225372D02*
X37755645Y-24225372D01*
X24173664Y-24225300D02*
G75*
G03*
X23714900Y-24684136I36J-458800D01*
G01*
X237676500Y-58391678D02*
X237676500Y-57874000D01*
X289145235Y-57437312D02*
X289048676Y-57533873D01*
X244256452Y-42545376D02*
X233900000Y-42545376D01*
X237676500Y-57389891D02*
X237676500Y-54941800D01*
X115292800Y-43011900D02*
X115291350Y-43010450D01*
X198354197Y-59952700D02*
X160273564Y-59952700D01*
X155740000Y-29040000D02*
X156740000Y-29040000D01*
X232196773Y-43156151D02*
X232196814Y-45401937D01*
X233900000Y-42545376D02*
X232807548Y-42545376D01*
X226937300Y-41014584D02*
X226937300Y-45399001D01*
X237676500Y-59322696D02*
X237676500Y-58391678D01*
X238160609Y-57874000D02*
X288227547Y-57874000D01*
X114834023Y-41182022D02*
X96188516Y-41182022D01*
X171091118Y-31294342D02*
X171545713Y-31748936D01*
X156740000Y-29040000D02*
X160832686Y-29040000D01*
X227397543Y-45859240D02*
X229100319Y-45859225D01*
X205156688Y-40555214D02*
X226477930Y-40555214D01*
X295450410Y-58604340D02*
X320124632Y-58604340D01*
X80338639Y-41188861D02*
X96181677Y-41188861D01*
X115291350Y-43010450D02*
X115291350Y-41580590D01*
X237676500Y-57874000D02*
X237676500Y-57389891D01*
X80338639Y-41188861D02*
X60264972Y-41188861D01*
X115292800Y-43011900D02*
X131465477Y-43011900D01*
X204697100Y-33176057D02*
X204697100Y-40095626D01*
X173462302Y-32716700D02*
X204237743Y-32716700D01*
X164784028Y-30676700D02*
X169600000Y-30676700D01*
X131925870Y-43472293D02*
X131925870Y-45832400D01*
X231739534Y-45859225D02*
X229100319Y-45859225D01*
X198362797Y-59961300D02*
X232544334Y-59961300D01*
X171545713Y-31748936D02*
X171842556Y-32045779D01*
X289959247Y-57100131D02*
X294991730Y-57100131D01*
X260917241Y-42545376D02*
X244256452Y-42545376D01*
X320584173Y-58144799D02*
X320584173Y-42480473D01*
X232976235Y-59782400D02*
X237216796Y-59782400D01*
X294991730Y-57100131D02*
X294991752Y-58145691D01*
X131925800Y-43472293D02*
G75*
G03*
X131465477Y-43011900I-460300J93D01*
G01*
X171091127Y-31294333D02*
G75*
G03*
X169600000Y-30676700I-1491127J-1491167D01*
G01*
X288227547Y-57874045D02*
G75*
G03*
X289048676Y-57533873I-47J1161245D01*
G01*
X160272001Y-59951147D02*
G75*
G03*
X160273564Y-59952700I1599J47D01*
G01*
X171842548Y-32045787D02*
G75*
G03*
X173462302Y-32716700I1619752J1619787D01*
G01*
X232544334Y-59961335D02*
G75*
G03*
X232770778Y-59867502I-34J320235D01*
G01*
X289959247Y-57100164D02*
G75*
G03*
X289145235Y-57437312I-47J-1151136D01*
G01*
X231739534Y-45859214D02*
G75*
G03*
X232196814Y-45401937I-34J457314D01*
G01*
X244256500Y-42545376D02*
G75*
G03*
X244316976Y-42605900I60500J-24D01*
G01*
X163114760Y-29985269D02*
G75*
G03*
X160832686Y-29040000I-2282060J-2282031D01*
G01*
X320124632Y-58604373D02*
G75*
G03*
X320584173Y-58144799I-32J459573D01*
G01*
X232807548Y-42545473D02*
G75*
G03*
X232196773Y-43156151I-48J-610727D01*
G01*
X96181677Y-41188816D02*
G75*
G03*
X96188516Y-41182022I23J6816D01*
G01*
X115291360Y-41580589D02*
G75*
G03*
X114834023Y-41182023I-459260J-65311D01*
G01*
X238194178Y-57874000D02*
G75*
G03*
X237676500Y-58391678I22J-517700D01*
G01*
X204697100Y-33176057D02*
G75*
G03*
X204237743Y-32716700I-459400J-43D01*
G01*
X204697086Y-40095626D02*
G75*
G03*
X205156688Y-40555214I459614J26D01*
G01*
X232976235Y-59782438D02*
G75*
G03*
X232770780Y-59867504I-35J-290562D01*
G01*
X226937286Y-41014584D02*
G75*
G03*
X226477930Y-40555214I-459386J-16D01*
G01*
X294991760Y-58145691D02*
G75*
G03*
X295450410Y-58604340I458640J-9D01*
G01*
X163114748Y-29985281D02*
G75*
G03*
X164784028Y-30676700I1669252J1669281D01*
G01*
X237216796Y-59782400D02*
G75*
G03*
X237676500Y-59322696I4J459700D01*
G01*
X226937260Y-45399001D02*
G75*
G03*
X227397543Y-45859240I460240J1D01*
G01*
X237676500Y-57389891D02*
G75*
G03*
X238160609Y-57874000I484100J-9D01*
G01*
X100182755Y-62834312D02*
X90451008Y-62834312D01*
X77423094Y-65732427D02*
X77091868Y-65401203D01*
X166271600Y-63171017D02*
X166271600Y-65771219D01*
X66217210Y-62834941D02*
X66217210Y-64698903D01*
X119273475Y-69237033D02*
X118808862Y-68772414D01*
X144149797Y-65940247D02*
X144149797Y-69081883D01*
X303450394Y-44050347D02*
X305053600Y-44050347D01*
X163296668Y-36654970D02*
X163296668Y-32039636D01*
X66676907Y-65158600D02*
X76506168Y-65158600D01*
X100628262Y-68528100D02*
X118219039Y-68528100D01*
X238525237Y-61410300D02*
X252784680Y-61410300D01*
X100186712Y-62830355D02*
X100182755Y-62834312D01*
X202312800Y-66690502D02*
X202312800Y-69497800D01*
X253692831Y-60359300D02*
X272866091Y-60359300D01*
X119862217Y-69480900D02*
X123987417Y-69480900D01*
X302990700Y-43590653D02*
X302990700Y-21760129D01*
X89530118Y-65975500D02*
X80543822Y-65975500D01*
X215759673Y-68753400D02*
X234293929Y-68753400D01*
X78009928Y-65975500D02*
X80543822Y-65975500D01*
X162837032Y-31580000D02*
X156740000Y-31580000D01*
X155740000Y-31580000D02*
X156740000Y-31580000D01*
X215759673Y-68753400D02*
X215759673Y-69038255D01*
X287540400Y-58609600D02*
X273327567Y-58609600D01*
X162507100Y-62711500D02*
X157191663Y-62711500D01*
X166730881Y-66230500D02*
X201852798Y-66230500D01*
X234753395Y-68293935D02*
X234753400Y-64566206D01*
X273324977Y-58607010D02*
X273324970Y-59900424D01*
X180585000Y-79654700D02*
X180585000Y-79518600D01*
X156272535Y-65939600D02*
X144150444Y-65939600D01*
X253233680Y-61859300D02*
X253233680Y-60818451D01*
X162507100Y-62711500D02*
X165812083Y-62711500D01*
X302530571Y-21300000D02*
X300200000Y-21300000D01*
X156731803Y-63171360D02*
X156731803Y-65480332D01*
X100169000Y-62848067D02*
X100169000Y-68068838D01*
X143691668Y-69480900D02*
X123987417Y-69480900D01*
X180585000Y-79518600D02*
X198351171Y-79518600D01*
X202312800Y-69497800D02*
X215300128Y-69497800D01*
X89990700Y-63294620D02*
X89990700Y-65514918D01*
X166271600Y-63171017D02*
G75*
G03*
X165812083Y-62711500I-459500J17D01*
G01*
X77091882Y-65401189D02*
G75*
G03*
X76506168Y-65158600I-585682J-585711D01*
G01*
X144150444Y-65939598D02*
G75*
G03*
X144149798Y-65940247I-44J-602D01*
G01*
X100169000Y-68068838D02*
G75*
G03*
X100628262Y-68528100I459300J38D01*
G01*
X163296600Y-32039636D02*
G75*
G03*
X162837032Y-31580000I-459600J36D01*
G01*
X202312800Y-66690502D02*
G75*
G03*
X201852798Y-66230500I-460000J2D01*
G01*
X66217200Y-64698903D02*
G75*
G03*
X66676907Y-65158600I459700J3D01*
G01*
X302990753Y-43590653D02*
G75*
G03*
X303450394Y-44050347I459647J-47D01*
G01*
X143691668Y-69480884D02*
G75*
G03*
X144149797Y-69081883I-2068J464884D01*
G01*
X273325000Y-58607010D02*
G75*
G03*
X273327567Y-58609600I2600J10D01*
G01*
X90451008Y-62834300D02*
G75*
G03*
X89990700Y-63294620I-8J-460300D01*
G01*
X156272535Y-65939603D02*
G75*
G03*
X156731803Y-65480332I-35J459303D01*
G01*
X118808836Y-68772440D02*
G75*
G03*
X118219039Y-68528100I-589836J-589760D01*
G01*
X215300128Y-69497873D02*
G75*
G03*
X215759673Y-69038255I-28J459573D01*
G01*
X253692831Y-60359380D02*
G75*
G03*
X253233680Y-60818451I69J-459220D01*
G01*
X119273467Y-69237041D02*
G75*
G03*
X119862217Y-69480900I588733J588741D01*
G01*
X157191663Y-62711503D02*
G75*
G03*
X156731803Y-63171360I37J-459897D01*
G01*
X89530118Y-65975500D02*
G75*
G03*
X89990700Y-65514918I-18J460600D01*
G01*
X77423083Y-65732438D02*
G75*
G03*
X78009928Y-65975500I586817J586838D01*
G01*
X253233700Y-61859300D02*
G75*
G03*
X252784680Y-61410300I-449000J0D01*
G01*
X166271600Y-65771219D02*
G75*
G03*
X166730881Y-66230500I459300J19D01*
G01*
X198351171Y-79518600D02*
G75*
G03*
X198368300Y-79501471I29J17100D01*
G01*
X100186712Y-62830400D02*
G75*
G03*
X100169000Y-62848067I-12J-17700D01*
G01*
X234293929Y-68753395D02*
G75*
G03*
X234753395Y-68293935I-29J459495D01*
G01*
X272866091Y-60359270D02*
G75*
G03*
X273324970Y-59900424I9J458870D01*
G01*
X302990700Y-21760129D02*
G75*
G03*
X302530571Y-21300000I-460100J29D01*
G01*
X209244734Y-74937861D02*
X204300882Y-74937861D01*
X203375459Y-75517819D02*
X203711200Y-75182103D01*
X155740000Y-36660000D02*
X156740000Y-36660000D01*
X161779950Y-75761652D02*
X151711540Y-75761652D01*
X151251999Y-76221193D02*
X151251999Y-78746941D01*
X161829912Y-36655232D02*
X161825144Y-36660000D01*
X150792640Y-79206300D02*
X47630000Y-79206300D01*
X319087500Y-78922100D02*
X210163568Y-78922100D01*
X202785442Y-75762200D02*
X161780498Y-75762200D01*
X209704300Y-78462832D02*
X209704300Y-75397427D01*
X161825144Y-36660000D02*
X156740000Y-36660000D01*
X202785442Y-75762241D02*
G75*
G03*
X203375459Y-75517819I-42J834441D01*
G01*
X209704300Y-78462832D02*
G75*
G03*
X210163568Y-78922100I459300J32D01*
G01*
X150792640Y-79206299D02*
G75*
G03*
X151251999Y-78746941I-40J459399D01*
G01*
X151711540Y-75761699D02*
G75*
G03*
X151251999Y-76221193I-40J-459501D01*
G01*
X47625000Y-79201300D02*
G75*
G03*
X47630000Y-79206300I5000J0D01*
G01*
X161780002Y-75761657D02*
G75*
G03*
X161780498Y-75762200I498J-43D01*
G01*
X209704239Y-75397427D02*
G75*
G03*
X209244734Y-74937861I-459539J27D01*
G01*
X204300882Y-74937841D02*
G75*
G03*
X203711200Y-75182103I18J-833959D01*
G01*
X280940641Y-22139794D02*
X274467940Y-22139794D01*
X159189100Y-85719052D02*
X159189100Y-85211000D01*
X161443006Y-22269500D02*
X161443006Y-20104402D01*
X159189100Y-97388909D02*
X159189100Y-85719052D01*
X300913623Y-57879840D02*
X298674500Y-57879840D01*
X183775436Y-95928700D02*
X199347600Y-95928700D01*
X183315800Y-97475015D02*
X183315789Y-96388350D01*
X227894591Y-85251903D02*
X227894588Y-82918987D01*
X155740000Y-34120000D02*
X156740000Y-34120000D01*
X137103156Y-83509955D02*
X102524210Y-83509955D01*
X159189100Y-85211000D02*
X159189100Y-84716491D01*
X300386177Y-45027300D02*
X300911434Y-45027300D01*
X253576412Y-82459356D02*
X228354217Y-82459356D01*
X159249049Y-97448858D02*
X175264344Y-97448858D01*
X159189100Y-85719052D02*
X159189099Y-85712153D01*
X137562587Y-85189945D02*
X137561370Y-85188728D01*
X158681048Y-85211000D02*
X158687947Y-85211001D01*
X159189100Y-84716491D02*
X159189100Y-80387734D01*
X281400903Y-37866219D02*
X281400903Y-22600056D01*
X159207436Y-97407245D02*
X159189100Y-97388909D01*
X209440445Y-95928700D02*
X199347600Y-95928700D01*
X161902698Y-19644710D02*
X274007863Y-19644710D01*
X299926291Y-38324500D02*
X299926291Y-44567414D01*
X209900400Y-85700670D02*
X209900400Y-95468745D01*
X281288642Y-82488272D02*
X253605328Y-82488272D01*
X157579305Y-79928211D02*
X158729582Y-79928215D01*
X301372400Y-45488266D02*
X301372400Y-57421063D01*
X274467940Y-22139794D02*
X274467935Y-20104781D01*
X299926291Y-38324500D02*
X281859184Y-38324500D01*
X137561370Y-85188728D02*
X137561370Y-83909056D01*
X221723500Y-85241000D02*
X210360070Y-85241000D01*
X137583642Y-85211000D02*
X158694591Y-85211000D01*
X158694591Y-85211000D02*
G75*
G03*
X159189100Y-84716491I9J494500D01*
G01*
X159189085Y-80387734D02*
G75*
G03*
X158729582Y-79928215I-459485J34D01*
G01*
X183775436Y-95928689D02*
G75*
G03*
X183315789Y-96388350I-36J-459611D01*
G01*
X281400906Y-22600056D02*
G75*
G03*
X280940641Y-22139794I-460306J-44D01*
G01*
X159207342Y-97407245D02*
G75*
G03*
X159249049Y-97448858I41658J45D01*
G01*
X299926300Y-44567414D02*
G75*
G03*
X300386177Y-45027300I459900J14D01*
G01*
X253576428Y-82459356D02*
G75*
G03*
X253605328Y-82488272I28872J-44D01*
G01*
X228354217Y-82459388D02*
G75*
G03*
X227894588Y-82918987I-17J-459612D01*
G01*
X137562500Y-85189946D02*
G75*
G03*
X137583642Y-85211000I21200J146D01*
G01*
X159189099Y-85712153D02*
G75*
G03*
X158687947Y-85211001I-501199J-47D01*
G01*
X161902698Y-19644706D02*
G75*
G03*
X161443006Y-20104402I2J-459694D01*
G01*
X137561363Y-83909057D02*
G75*
G03*
X137103156Y-83509956I-460263J-65843D01*
G01*
X301372400Y-45488266D02*
G75*
G03*
X300911434Y-45027300I-461000J-34D01*
G01*
X210360070Y-85241000D02*
G75*
G03*
X209900400Y-85700670I30J-459700D01*
G01*
X281400900Y-37866219D02*
G75*
G03*
X281859184Y-38324500I458300J19D01*
G01*
X209440445Y-95928700D02*
G75*
G03*
X209900400Y-95468745I-45J460000D01*
G01*
X274467990Y-20104781D02*
G75*
G03*
X274007863Y-19644710I-460090J-19D01*
G01*
X300913623Y-57879900D02*
G75*
G03*
X301372400Y-57421063I-23J458800D01*
G01*
X145730938Y-67300000D02*
X145730938Y-66892151D01*
X157787286Y-66432899D02*
X157786587Y-66432200D01*
X157786587Y-66432200D02*
X146190889Y-66432200D01*
X146190889Y-66432238D02*
G75*
G03*
X145730938Y-66892151I11J-459962D01*
G01*
D16*
X141773224Y-88349704D02*
X144105900Y-88349704D01*
X39183043Y-38577500D02*
X46434000Y-38577500D01*
X62725927Y-58296263D02*
X78779041Y-58296263D01*
X88254896Y-28695974D02*
X91570282Y-28695974D01*
X311722300Y-38160288D02*
X311722300Y-40158146D01*
X84662687Y-60032795D02*
X79418824Y-60032795D01*
X238769558Y-86269822D02*
X238769571Y-87288253D01*
X92200000Y-29325692D02*
X92200000Y-37950339D01*
X302723400Y-56951117D02*
X302745083Y-56972800D01*
X223520444Y-25637184D02*
X223489428Y-25668200D01*
X228016825Y-87917700D02*
X228014262Y-87915137D01*
X159273900Y-74606133D02*
X159273900Y-67937343D01*
X261693750Y-23621400D02*
X261693750Y-25519967D01*
X311722300Y-30629200D02*
X311722300Y-38160288D01*
X280788123Y-43762979D02*
X280754244Y-43729100D01*
X300620800Y-54628657D02*
X300620800Y-56975100D01*
X223489428Y-25668200D02*
X208538600Y-25668200D01*
X224897166Y-25668200D02*
X223551460Y-25668200D01*
X224819414Y-80378800D02*
X224824593Y-80383979D01*
X289056870Y-54000000D02*
X299992143Y-54000000D01*
X249587180Y-85640700D02*
X239398673Y-85640700D01*
X311092574Y-44899847D02*
X303351658Y-44899847D01*
X178152710Y-100200000D02*
X176163831Y-100200000D01*
X307831000Y-22508427D02*
X307831000Y-29367426D01*
X244679277Y-49316937D02*
X239435966Y-49316937D01*
X280034569Y-85640700D02*
X251622642Y-85640700D01*
X319208978Y-39184922D02*
X312746934Y-39184922D01*
X245306262Y-56699500D02*
X245307100Y-56698662D01*
X89228025Y-86313893D02*
X89228049Y-87150542D01*
X43285427Y-62520034D02*
X43285427Y-58924095D01*
X225528800Y-24250005D02*
X225528800Y-25036566D01*
X283694160Y-57081340D02*
X284219321Y-57081340D01*
X261693750Y-23621400D02*
X241703975Y-23621400D01*
X303715200Y-21882823D02*
X307205396Y-21882823D01*
X195847600Y-80378800D02*
X224819414Y-80378800D01*
X108159205Y-85668902D02*
X108159205Y-85670582D01*
X262324183Y-26150400D02*
X278793070Y-26150400D01*
X311722300Y-40158146D02*
X311722300Y-44270121D01*
X134272933Y-99117000D02*
X108792829Y-99117000D01*
X196281400Y-103014937D02*
X196281429Y-100829412D01*
X245307100Y-56698662D02*
X245307100Y-49944760D01*
X177162988Y-102400000D02*
X177162988Y-101199157D01*
X283675500Y-57100000D02*
X283675500Y-44392620D01*
X302723400Y-45528105D02*
X302723400Y-46187837D01*
X177162988Y-102400000D02*
X177162988Y-101189722D01*
X108159205Y-85670582D02*
X108152830Y-85676957D01*
X176163831Y-100200000D02*
X160500000Y-100200000D01*
X37000000Y-38577500D02*
X39183043Y-38577500D01*
X141142914Y-88980014D02*
X141142914Y-92799985D01*
X228014262Y-87915137D02*
X225454193Y-87915107D01*
X43913259Y-58296263D02*
X62725927Y-58296263D01*
X279421500Y-26778830D02*
X279421500Y-43098518D01*
X250546484Y-90479689D02*
X250546484Y-86348117D01*
X37932074Y-26644144D02*
X37932074Y-37645426D01*
X158048981Y-103021432D02*
X158048981Y-101197383D01*
X144105900Y-88349704D02*
X144105900Y-99571982D01*
X108163130Y-98487301D02*
X108163130Y-85672827D01*
X251622642Y-85640700D02*
X249587180Y-85640700D01*
X308460674Y-29997100D02*
X311090200Y-29997100D01*
X241703975Y-23621400D02*
X226157405Y-23621400D01*
X283675500Y-57100000D02*
X283694160Y-57081340D01*
X158643757Y-67307200D02*
X154790386Y-67307200D01*
X224824593Y-80383979D02*
X224824593Y-87285499D01*
X24485900Y-38577500D02*
X37000000Y-38577500D01*
X238140132Y-87917700D02*
X228016825Y-87917700D01*
X160500000Y-100200000D02*
X157038608Y-100200000D01*
X280052126Y-43729123D02*
X280754244Y-43729100D01*
X108163130Y-85672827D02*
X108159205Y-85668902D01*
X157038608Y-100200000D02*
X144733918Y-100200000D01*
X98273720Y-60075308D02*
X84705200Y-60075308D01*
X200194394Y-64331561D02*
X196112797Y-64331561D01*
X285673368Y-56419748D02*
X287411639Y-54681477D01*
X91572839Y-38577500D02*
X76556021Y-38577500D01*
X159046364Y-100200000D02*
X160500000Y-100200000D01*
X78790444Y-58284860D02*
X78790418Y-59404375D01*
X195652025Y-100200000D02*
X178152710Y-100200000D01*
X283045859Y-43762979D02*
X280788123Y-43762979D01*
X108124010Y-85684500D02*
X89857400Y-85684500D01*
X302723400Y-46187837D02*
X302723400Y-56951117D01*
X134903700Y-94055420D02*
X134903700Y-98486233D01*
X177162988Y-103018436D02*
X177162988Y-102400000D01*
X46434000Y-38577500D02*
X76556021Y-38577500D01*
X140515899Y-93427000D02*
X135532120Y-93427000D01*
X238140132Y-87917671D02*
G75*
G03*
X238769571Y-87288253I68J629371D01*
G01*
X311722278Y-38160288D02*
G75*
G03*
X312746934Y-39184922I1024622J-12D01*
G01*
X141773224Y-88349714D02*
G75*
G03*
X141142914Y-88980014I-24J-630286D01*
G01*
X37947660Y-37790417D02*
G75*
G03*
X38919486Y-38577508I976040J211617D01*
G01*
X158049000Y-101210373D02*
G75*
G03*
X157038608Y-100200000I-1010400J-27D01*
G01*
X84662692Y-60032795D02*
G75*
G03*
X84705200Y-60075308I42508J-5D01*
G01*
X91572839Y-38577500D02*
G75*
G03*
X92200000Y-37950339I-39J627200D01*
G01*
X251556651Y-85640687D02*
G75*
G03*
X250546487Y-86650784I-51J-1010113D01*
G01*
X200227339Y-64364495D02*
G75*
G03*
X200194394Y-64331561I-32939J-5D01*
G01*
X178152710Y-100199988D02*
G75*
G03*
X177162988Y-101189722I-10J-989712D01*
G01*
X224824593Y-87285499D02*
G75*
G03*
X225454193Y-87915107I629607J-1D01*
G01*
X279421500Y-26778830D02*
G75*
G03*
X278793070Y-26150400I-628400J30D01*
G01*
X134272933Y-99117000D02*
G75*
G03*
X134903700Y-98486233I-33J630800D01*
G01*
X303351658Y-44899800D02*
G75*
G03*
X302723400Y-45528105I42J-628300D01*
G01*
X223520500Y-25637184D02*
G75*
G03*
X223551460Y-25668200I31000J-16D01*
G01*
X279421477Y-43098518D02*
G75*
G03*
X280052126Y-43729123I630623J18D01*
G01*
X108124009Y-85684494D02*
G75*
G03*
X108152830Y-85676957I-26209J159094D01*
G01*
X226157405Y-23621400D02*
G75*
G03*
X225528800Y-24250005I-5J-628600D01*
G01*
X224897166Y-25668200D02*
G75*
G03*
X225528800Y-25036566I34J631600D01*
G01*
X159046364Y-100199981D02*
G75*
G03*
X158048981Y-101197383I36J-997419D01*
G01*
X140515899Y-93427014D02*
G75*
G03*
X141142914Y-92799985I1J627014D01*
G01*
X135532120Y-93427000D02*
G75*
G03*
X134903700Y-94055420I-20J-628400D01*
G01*
X37000000Y-38577474D02*
G75*
G03*
X37932074Y-37645426I0J932074D01*
G01*
X144105900Y-99571982D02*
G75*
G03*
X144733918Y-100200000I628000J-18D01*
G01*
X280034569Y-85640683D02*
G75*
G03*
X280070183Y-85605086I31J35583D01*
G01*
X89857400Y-85684525D02*
G75*
G03*
X89228025Y-86313893I0J-629375D01*
G01*
X43913259Y-58296227D02*
G75*
G03*
X43285427Y-58924095I41J-627873D01*
G01*
X300620800Y-54628657D02*
G75*
G03*
X299992143Y-54000000I-628700J-43D01*
G01*
X307831000Y-29367426D02*
G75*
G03*
X308460674Y-29997100I629700J26D01*
G01*
X245307163Y-49944760D02*
G75*
G03*
X244679277Y-49316937I-627863J-40D01*
G01*
X312695524Y-39184900D02*
G75*
G03*
X311722300Y-40158146I-24J-973200D01*
G01*
X250546500Y-86348117D02*
G75*
G03*
X250498367Y-86300000I-48100J17D01*
G01*
X250546500Y-86600004D02*
G75*
G03*
X249587180Y-85640700I-959300J4D01*
G01*
X92200026Y-29325692D02*
G75*
G03*
X91570282Y-28695974I-629726J-8D01*
G01*
X159273900Y-67937343D02*
G75*
G03*
X158643757Y-67307200I-630100J43D01*
G01*
X284219321Y-57081345D02*
G75*
G03*
X285673367Y-56419747I-160621J2281645D01*
G01*
X196281400Y-100829412D02*
G75*
G03*
X195652025Y-100200000I-629400J12D01*
G01*
X307830977Y-22508427D02*
G75*
G03*
X307205396Y-21882823I-625577J27D01*
G01*
X311092574Y-44899800D02*
G75*
G03*
X311722300Y-44270121I26J629700D01*
G01*
X311722300Y-30629200D02*
G75*
G03*
X311090200Y-29997100I-632100J0D01*
G01*
X177163000Y-101199157D02*
G75*
G03*
X176163831Y-100200000I-999200J-43D01*
G01*
X108163200Y-98487301D02*
G75*
G03*
X108792829Y-99117000I629600J-99D01*
G01*
X261693800Y-25519967D02*
G75*
G03*
X262324183Y-26150400I630400J-33D01*
G01*
X283675521Y-44392620D02*
G75*
G03*
X283045859Y-43762979I-629621J20D01*
G01*
X78790405Y-59404375D02*
G75*
G03*
X79418824Y-60032795I628395J-25D01*
G01*
X289056870Y-53999977D02*
G75*
G03*
X287411639Y-54681477I30J-2326723D01*
G01*
X239435966Y-49316945D02*
G75*
G03*
X239428045Y-49324858I34J-7955D01*
G01*
X319208978Y-39184900D02*
G75*
G03*
X319227600Y-39166300I22J18600D01*
G01*
X239398673Y-85640658D02*
G75*
G03*
X238769558Y-86269822I27J-629142D01*
G01*
X154775700Y-67292509D02*
G75*
G03*
X154790386Y-67307200I14700J9D01*
G01*
X78779041Y-58296344D02*
G75*
G03*
X78790444Y-58284860I-41J11444D01*
G01*
D17*
X134562070Y-32864108D02*
X134567358Y-32858820D01*
X134567358Y-32858820D02*
X137102800Y-32858820D01*
X41922000Y-42792354D02*
X32939295Y-42792354D01*
X32921746Y-42774849D02*
G75*
G03*
X32939295Y-42792354I17554J49D01*
G01*
X74520130Y-44701600D02*
X79613362Y-44701600D01*
X74520111Y-44701545D02*
G75*
G03*
X74519930Y-44701800I89J-255D01*
G01*
X79613362Y-44701600D02*
G75*
G03*
X79618400Y-44696562I38J5000D01*
G01*
X100379800Y-42372533D02*
X100379800Y-47072142D01*
X99920628Y-41913361D02*
X90632200Y-41913361D01*
X100379739Y-42372533D02*
G75*
G03*
X99920628Y-41913361I-459139J33D01*
G01*
X100379807Y-47072142D02*
G75*
G03*
X100396451Y-47088793I16693J42D01*
G01*
X109800165Y-47748062D02*
X109800165Y-43120875D01*
X110259283Y-48207180D02*
X118691300Y-48207180D01*
X109800220Y-47748062D02*
G75*
G03*
X110259283Y-48207180I459080J-38D01*
G01*
X164710232Y-45632862D02*
X158051961Y-45632862D01*
X157592627Y-45014000D02*
X157592627Y-45173528D01*
X165169300Y-44365736D02*
X165169300Y-45173794D01*
X157592627Y-45014000D02*
X157593844Y-45015217D01*
X157593844Y-45015217D02*
X157593844Y-45233811D01*
X157592638Y-45173528D02*
G75*
G03*
X158051961Y-45632862I459362J28D01*
G01*
X164710232Y-45632800D02*
G75*
G03*
X165169300Y-45173794I68J459000D01*
G01*
X317189400Y-37865059D02*
X317189400Y-22359388D01*
X316515770Y-38324500D02*
X316729929Y-38324510D01*
X316730012Y-21900000D02*
X316300000Y-21900000D01*
X317189400Y-22359388D02*
G75*
G03*
X316730012Y-21900000I-459400J-12D01*
G01*
X316729929Y-38324600D02*
G75*
G03*
X317189400Y-37865059I-29J459500D01*
G01*
X287440139Y-42252437D02*
X287439187Y-42251485D01*
X287449200Y-42252437D02*
X287440139Y-42252437D01*
X287420537Y-42252437D02*
X280707261Y-42252437D01*
X287420539Y-42252423D02*
G75*
G03*
X287439187Y-42251484I7261J41423D01*
G01*
X206779248Y-55403617D02*
X206719131Y-55343500D01*
X206719131Y-55343500D02*
X192894755Y-55343500D01*
X192888100Y-55336828D02*
G75*
G03*
X192894755Y-55343500I6700J28D01*
G01*
X158116318Y-64916778D02*
X164003700Y-64916778D01*
X116800276Y-64824800D02*
X126824215Y-64824800D01*
X116341114Y-63961128D02*
X116341127Y-64365666D01*
X126824215Y-64824800D02*
X126955415Y-64693600D01*
X116341200Y-64365666D02*
G75*
G03*
X116800276Y-64824800I459100J-34D01*
G01*
X80658700Y-61114953D02*
X85897238Y-61114953D01*
X85897238Y-61114987D02*
G75*
G03*
X85899887Y-61112304I-38J2687D01*
G01*
X68705839Y-61442499D02*
X61587651Y-61442499D01*
X68709298Y-61446037D02*
G75*
G03*
X68705839Y-61442500I-3398J137D01*
G01*
X61586201Y-61441000D02*
G75*
G03*
X61587651Y-61442498I1499J0D01*
G01*
X56728213Y-90148426D02*
X56728231Y-89157635D01*
X56269029Y-88698425D02*
X22410910Y-88698425D01*
X56728213Y-90159589D02*
X56728213Y-90148426D01*
X22407275Y-88694770D02*
G75*
G03*
X22410910Y-88698425I3625J-30D01*
G01*
X56728175Y-89157635D02*
G75*
G03*
X56269029Y-88698425I-459175J35D01*
G01*
X71069007Y-88639587D02*
X89228049Y-88639587D01*
X70609288Y-85301771D02*
X70609289Y-88179869D01*
X70609313Y-88179869D02*
G75*
G03*
X71069007Y-88639587I459687J-31D01*
G01*
X128708497Y-81931900D02*
X145180045Y-81931900D01*
X145638400Y-82390255D02*
X145638400Y-84080400D01*
X145638400Y-82390255D02*
G75*
G03*
X145180045Y-81931900I-458400J-45D01*
G01*
X212228789Y-64364495D02*
X212228785Y-66979465D01*
X212687330Y-67438011D02*
X222208100Y-67438011D01*
X212228789Y-66979465D02*
G75*
G03*
X212687330Y-67438011I458511J-35D01*
G01*
X242382200Y-65853458D02*
X242382168Y-64301194D01*
X228629548Y-63841706D02*
X241922669Y-63841706D01*
X228629054Y-63842200D02*
X228629548Y-63841706D01*
X242382194Y-64301194D02*
G75*
G03*
X241922669Y-63841706I-459494J-6D01*
G01*
X302510706Y-61473677D02*
X292561215Y-61473677D01*
X292102149Y-59448000D02*
X292102149Y-61014611D01*
X292102123Y-61014611D02*
G75*
G03*
X292561215Y-61473677I459077J11D01*
G01*
X251436300Y-88563200D02*
X265282468Y-88563200D01*
X193053470Y-96653200D02*
X193066070Y-96665800D01*
X193066070Y-96665800D02*
X203418800Y-96665800D01*
X101282439Y-57126600D02*
X39199119Y-57126600D01*
X101741664Y-58740802D02*
X101741664Y-57585825D01*
X44353739Y-18900000D02*
X140500000Y-18900000D01*
X43894000Y-23684715D02*
X43894000Y-19359739D01*
X179619300Y-77926900D02*
X179619300Y-84749664D01*
X194198115Y-86462264D02*
X194198092Y-85667718D01*
X163283844Y-59200034D02*
X102200896Y-59200034D01*
X180077936Y-85208300D02*
X193738661Y-85208300D01*
X40006400Y-24143700D02*
X43435015Y-24143700D01*
X194198100Y-85667718D02*
G75*
G03*
X193738661Y-85208300I-459400J18D01*
G01*
X101741666Y-58740802D02*
G75*
G03*
X102200896Y-59200034I459234J2D01*
G01*
X43435015Y-24143700D02*
G75*
G03*
X43894000Y-23684715I-15J459000D01*
G01*
X44353739Y-18900000D02*
G75*
G03*
X43894000Y-19359739I-39J-459700D01*
G01*
X101741600Y-57585825D02*
G75*
G03*
X101282439Y-57126600I-459200J25D01*
G01*
X179619300Y-84749664D02*
G75*
G03*
X180077936Y-85208300I458600J-36D01*
G01*
X145130705Y-56258600D02*
X136513481Y-56258600D01*
X145590000Y-40190000D02*
X145590000Y-55799305D01*
X136053807Y-56718274D02*
X136053807Y-57475603D01*
X135593810Y-57935600D02*
X127943000Y-57935600D01*
X125859938Y-80182383D02*
X62126362Y-80182383D01*
X61667000Y-80641745D02*
X61667000Y-106342973D01*
X145590000Y-39190000D02*
X145590000Y-40190000D01*
X61209973Y-106800000D02*
X37900000Y-106800000D01*
X62126362Y-80182300D02*
G75*
G03*
X61667000Y-80641745I38J-459400D01*
G01*
X136513481Y-56258607D02*
G75*
G03*
X136053807Y-56718274I19J-459693D01*
G01*
X61209973Y-106800000D02*
G75*
G03*
X61667000Y-106342973I27J457000D01*
G01*
X145130705Y-56258600D02*
G75*
G03*
X145590000Y-55799305I-5J459300D01*
G01*
X135593810Y-57935607D02*
G75*
G03*
X136053807Y-57475603I-10J460007D01*
G01*
X143040000Y-39190000D02*
X143040000Y-40190000D01*
X113981439Y-58049688D02*
X102779415Y-58049688D01*
X102320290Y-57590563D02*
X102320290Y-56861435D01*
X129592338Y-50709746D02*
X128647574Y-49765001D01*
X143040000Y-40190000D02*
X143040000Y-50495330D01*
X101860955Y-56402100D02*
X37947000Y-56402100D01*
X114440600Y-49981034D02*
X114440600Y-57590527D01*
X142580544Y-50954786D02*
X130183925Y-50954786D01*
X128058012Y-49520800D02*
X114900834Y-49520800D01*
X113981439Y-58049700D02*
G75*
G03*
X114440600Y-57590527I-39J459200D01*
G01*
X128647573Y-49765002D02*
G75*
G03*
X128058012Y-49520800I-589573J-589598D01*
G01*
X102320300Y-56861435D02*
G75*
G03*
X101860955Y-56402100I-459300J35D01*
G01*
X129592316Y-50709768D02*
G75*
G03*
X130183925Y-50954786I591584J591668D01*
G01*
X102320312Y-57590563D02*
G75*
G03*
X102779415Y-58049688I459088J-37D01*
G01*
X114900834Y-49520800D02*
G75*
G03*
X114440600Y-49981034I-34J-460200D01*
G01*
X142580544Y-50954800D02*
G75*
G03*
X143040000Y-50495330I-44J459500D01*
G01*
X52332489Y-25272200D02*
X52332489Y-20683563D01*
X134866268Y-21420000D02*
X140500000Y-21420000D01*
X134275152Y-21175152D02*
X133568214Y-20468214D01*
X140500000Y-21420000D02*
X139500000Y-21420000D01*
X207224200Y-82449531D02*
X207224200Y-89239300D01*
X52791288Y-20224764D02*
X132980473Y-20224764D01*
X211002200Y-81989800D02*
X207683931Y-81989800D01*
X52791288Y-20224789D02*
G75*
G03*
X52332489Y-20683563I12J-458811D01*
G01*
X207683931Y-81989800D02*
G75*
G03*
X207224200Y-82449531I-31J-459700D01*
G01*
X133568237Y-20468191D02*
G75*
G03*
X132980473Y-20224764I-587737J-587809D01*
G01*
X134275161Y-21175143D02*
G75*
G03*
X134866268Y-21420000I591139J591143D01*
G01*
X226060600Y-47746508D02*
X226060600Y-43085607D01*
X203073847Y-39228393D02*
X161081376Y-39228393D01*
X227665100Y-50148341D02*
X226624401Y-49107643D01*
X139500000Y-23960000D02*
X140500000Y-23960000D01*
X160492515Y-39472307D02*
X159267252Y-40697570D01*
X90674528Y-23960000D02*
X139500000Y-23960000D01*
X225600776Y-42625783D02*
X218597451Y-42625783D01*
X203533567Y-42165950D02*
X203533567Y-39688113D01*
X79277470Y-23080300D02*
X88550855Y-23080300D01*
X78818700Y-28076827D02*
X78818700Y-23539070D01*
X218597451Y-42625783D02*
X203993400Y-42625783D01*
X158122656Y-40943380D02*
X158673771Y-40943391D01*
X75695700Y-28536486D02*
X78359041Y-28536486D01*
X89570914Y-23502878D02*
G75*
G03*
X90674528Y-23960000I1103586J1103578D01*
G01*
X89570948Y-23502844D02*
G75*
G03*
X88550855Y-23080300I-1020048J-1019956D01*
G01*
X203533507Y-39688113D02*
G75*
G03*
X203073847Y-39228393I-459707J13D01*
G01*
X226060617Y-43085607D02*
G75*
G03*
X225600776Y-42625783I-459817J7D01*
G01*
X226060585Y-47746508D02*
G75*
G03*
X226624402Y-49107642I1924915J8D01*
G01*
X158673771Y-40943380D02*
G75*
G03*
X159267252Y-40697570I29J839280D01*
G01*
X161081376Y-39228386D02*
G75*
G03*
X160492516Y-39472308I24J-832814D01*
G01*
X203533517Y-42165950D02*
G75*
G03*
X203993400Y-42625783I459883J50D01*
G01*
X78359041Y-28536500D02*
G75*
G03*
X78818700Y-28076827I-41J459700D01*
G01*
X79277470Y-23080300D02*
G75*
G03*
X78818700Y-23539070I30J-458800D01*
G01*
X95046615Y-57851100D02*
X100482320Y-57851100D01*
X241923314Y-48114389D02*
X241923314Y-43729935D01*
X124847723Y-60685800D02*
X124711917Y-60549994D01*
X128007625Y-26245984D02*
X126815645Y-25054094D01*
X140500000Y-26490000D02*
X139500000Y-26490000D01*
X100940800Y-60032280D02*
X100940800Y-61022074D01*
X100940800Y-61022074D02*
X100940800Y-66697000D01*
X234111647Y-60685800D02*
X124847723Y-60685800D01*
X132023146Y-86525800D02*
X137170799Y-86525800D01*
X241657700Y-59707450D02*
X241657703Y-59738428D01*
X128596764Y-26490000D02*
X140500000Y-26490000D01*
X95769625Y-27111300D02*
X95769625Y-25269183D01*
X124710211Y-60551700D02*
X101411174Y-60551700D01*
X241162078Y-60234100D02*
X235202146Y-60234100D01*
X137628282Y-86983280D02*
X137628305Y-90358074D01*
X242117245Y-58598500D02*
X247728968Y-58598500D01*
X241463255Y-43269876D02*
X237994391Y-43269876D01*
X241657700Y-59707450D02*
X241657729Y-59057997D01*
X124711917Y-60549994D02*
X124576111Y-60685800D01*
X131564001Y-84234455D02*
X131563965Y-86066610D01*
X96228508Y-24810300D02*
X126227043Y-24810300D01*
X100940800Y-58309580D02*
X100940800Y-60032280D01*
X128007643Y-26245966D02*
G75*
G03*
X128596764Y-26490000I589157J589166D01*
G01*
X101411174Y-60551700D02*
G75*
G03*
X100940800Y-61022074I26J-470400D01*
G01*
X100940800Y-58309580D02*
G75*
G03*
X100482320Y-57851100I-458500J-20D01*
G01*
X137628300Y-86983280D02*
G75*
G03*
X137170799Y-86525800I-457500J-20D01*
G01*
X235202146Y-60234136D02*
G75*
G03*
X234681793Y-60449639I-46J-735864D01*
G01*
X124710211Y-60551717D02*
G75*
G03*
X124711917Y-60549994I-11J1717D01*
G01*
X241162078Y-60234103D02*
G75*
G03*
X241657703Y-59738428I22J495603D01*
G01*
X241923324Y-43729935D02*
G75*
G03*
X241463255Y-43269876I-460024J35D01*
G01*
X242117245Y-58598529D02*
G75*
G03*
X241657729Y-59057997I-45J-459471D01*
G01*
X234111647Y-60685835D02*
G75*
G03*
X234681792Y-60449638I-47J806335D01*
G01*
X100940800Y-60032280D02*
G75*
G03*
X101460220Y-60551700I519400J-20D01*
G01*
X131563900Y-86066610D02*
G75*
G03*
X132023146Y-86525800I459200J10D01*
G01*
X96228508Y-24810325D02*
G75*
G03*
X95769625Y-25269183I-8J-458875D01*
G01*
X126815615Y-25054124D02*
G75*
G03*
X126227043Y-24810300I-588615J-588576D01*
G01*
X120351800Y-63118654D02*
X142727770Y-63118654D01*
X116749000Y-61276200D02*
X116749000Y-62659652D01*
X143703214Y-104190700D02*
X153286203Y-104190700D01*
X112776476Y-31754061D02*
X112776506Y-30194951D01*
X132483375Y-29040000D02*
X139500000Y-29040000D01*
X143256400Y-68396728D02*
X143256400Y-63578100D01*
X258155520Y-39652900D02*
X258182720Y-39680100D01*
X242109175Y-60685300D02*
X242109675Y-60685800D01*
X242569435Y-60226055D02*
X242569450Y-59783079D01*
X143256400Y-63578100D02*
X143256400Y-62590024D01*
X263891069Y-39696100D02*
X262891720Y-39696100D01*
X243029045Y-59323500D02*
X267585492Y-59323500D01*
X113235984Y-29735482D02*
X130804334Y-29735482D01*
X262891720Y-39696100D02*
X258198720Y-39696100D01*
X155438232Y-105082100D02*
X156361500Y-105082100D01*
X278401100Y-39236701D02*
X278401100Y-35244700D01*
X267581700Y-56352800D02*
X263866390Y-56352800D01*
X263406600Y-55893010D02*
X263406600Y-47632500D01*
X140500000Y-29040000D02*
X139500000Y-29040000D01*
X277941701Y-39696100D02*
X263891069Y-39696100D01*
X258155520Y-39652900D02*
X258155520Y-39696962D01*
X263406600Y-47632500D02*
X263406600Y-40180569D01*
X236923849Y-60685300D02*
X242109175Y-60685300D01*
X143243338Y-94289400D02*
X143243338Y-103730824D01*
X143256400Y-62590024D02*
X143256400Y-61596448D01*
X143715348Y-61137500D02*
X235832143Y-61137500D01*
X258155520Y-39696962D02*
X258156515Y-39697957D01*
X117208002Y-63118654D02*
X120351800Y-63118654D01*
X130804334Y-29735493D02*
G75*
G03*
X131616545Y-29399053I-34J1148693D01*
G01*
X143256446Y-63578100D02*
G75*
G03*
X142796954Y-63118654I-459446J0D01*
G01*
X263406600Y-40210980D02*
G75*
G03*
X262891720Y-39696100I-514900J-20D01*
G01*
X263891069Y-39696100D02*
G75*
G03*
X263406600Y-40180569I31J-484500D01*
G01*
X154381092Y-104644242D02*
G75*
G03*
X155438232Y-105082100I1057108J1057142D01*
G01*
X236923849Y-60685320D02*
G75*
G03*
X236315842Y-60937145I-49J-859780D01*
G01*
X116749046Y-62659652D02*
G75*
G03*
X117208002Y-63118654I458954J-48D01*
G01*
X143243300Y-103730824D02*
G75*
G03*
X143703214Y-104190700I459900J24D01*
G01*
X258155500Y-39652900D02*
G75*
G03*
X258198720Y-39696100I43200J0D01*
G01*
X277941701Y-39696100D02*
G75*
G03*
X278401100Y-39236701I-1J459400D01*
G01*
X143715348Y-61137500D02*
G75*
G03*
X143256400Y-61596448I-48J-458900D01*
G01*
X243029045Y-59323550D02*
G75*
G03*
X242569450Y-59783079I-45J-459550D01*
G01*
X132483375Y-29039988D02*
G75*
G03*
X131616545Y-29399053I25J-1225912D01*
G01*
X154381101Y-104644233D02*
G75*
G03*
X153286203Y-104190700I-1094901J-1094867D01*
G01*
X235832143Y-61137516D02*
G75*
G03*
X236315842Y-60937145I-43J684116D01*
G01*
X142727770Y-63118600D02*
G75*
G03*
X143256400Y-62590024I30J528600D01*
G01*
X113235984Y-29735506D02*
G75*
G03*
X112776506Y-30194951I16J-459494D01*
G01*
X258161292Y-39696125D02*
G75*
G03*
X258156515Y-39697957I-1292J-3775D01*
G01*
X242109675Y-60685735D02*
G75*
G03*
X242569435Y-60226055I25J459735D01*
G01*
X263406600Y-55893010D02*
G75*
G03*
X263866390Y-56352800I459800J10D01*
G01*
X267585492Y-59323507D02*
G75*
G03*
X267589907Y-59319085I8J4407D01*
G01*
X133055450Y-31580000D02*
X132374813Y-31580000D01*
X238403200Y-56964316D02*
X238403200Y-54674545D01*
X219243300Y-56201479D02*
X219243300Y-55730134D01*
X231609900Y-54675206D02*
X231609900Y-56203633D01*
X133552596Y-32077146D02*
X133552596Y-49767518D01*
X218783366Y-55270200D02*
X213445394Y-55270200D01*
X212526208Y-56983700D02*
X137339000Y-56983700D01*
X137339000Y-56983700D02*
X137339000Y-56985300D01*
X231150033Y-56663500D02*
X219705321Y-56663500D01*
X282545337Y-54682080D02*
X282545354Y-56964794D01*
X131915164Y-32039641D02*
X131915154Y-32635782D01*
X282086151Y-57424000D02*
X238862884Y-57424000D01*
X212985800Y-55729794D02*
X212985800Y-56524108D01*
X134009772Y-50230286D02*
X137294460Y-50230286D01*
X134053406Y-31580000D02*
X133055450Y-31580000D01*
X139500000Y-31580000D02*
X134053406Y-31580000D01*
X139500000Y-31580000D02*
X140500000Y-31580000D01*
X237943755Y-54215100D02*
X232070006Y-54215100D01*
X231150033Y-56663500D02*
G75*
G03*
X231609900Y-56203633I-33J459900D01*
G01*
X232070006Y-54215100D02*
G75*
G03*
X231609900Y-54675206I-6J-460100D01*
G01*
X133552500Y-32077146D02*
G75*
G03*
X133055450Y-31580000I-497100J46D01*
G01*
X238403200Y-56964316D02*
G75*
G03*
X238862884Y-57424000I459700J16D01*
G01*
X133549800Y-49770296D02*
G75*
G03*
X133552596Y-49767518I0J2796D01*
G01*
X133549814Y-49770314D02*
G75*
G03*
X134009772Y-50230286I459986J14D01*
G01*
X212526208Y-56983700D02*
G75*
G03*
X212985800Y-56524108I-8J459600D01*
G01*
X219243300Y-56201479D02*
G75*
G03*
X219705321Y-56663500I462000J-21D01*
G01*
X132374813Y-31579964D02*
G75*
G03*
X131915164Y-32039641I-13J-459636D01*
G01*
X213445394Y-55270200D02*
G75*
G03*
X212985800Y-55729794I6J-459600D01*
G01*
X238403200Y-54674545D02*
G75*
G03*
X237943755Y-54215100I-459400J45D01*
G01*
X219243300Y-55730134D02*
G75*
G03*
X218783366Y-55270200I-459900J34D01*
G01*
X282086151Y-57423954D02*
G75*
G03*
X282545354Y-56964794I49J459154D01*
G01*
X134053406Y-31579996D02*
G75*
G03*
X133552596Y-32080810I-6J-500804D01*
G01*
X178405900Y-94271100D02*
X178405900Y-78353901D01*
X247669927Y-90745338D02*
X247669927Y-90271292D01*
X178405900Y-98513265D02*
X178405900Y-94271100D01*
X224467200Y-90271151D02*
X224467200Y-98514365D01*
X247210135Y-89811500D02*
X224926851Y-89811500D01*
X224008865Y-98972700D02*
X195770800Y-98972700D01*
X137122699Y-35414938D02*
X137122699Y-34579743D01*
X309515620Y-91204189D02*
X248128778Y-91204189D01*
X195770800Y-98972700D02*
X178865335Y-98972700D01*
X309975600Y-92300000D02*
X309975600Y-91664169D01*
X177946299Y-77894300D02*
X161013800Y-77894300D01*
X137582442Y-34120000D02*
X140490000Y-34120000D01*
X178405900Y-98513265D02*
G75*
G03*
X178865335Y-98972700I459400J-35D01*
G01*
X247669911Y-90745338D02*
G75*
G03*
X248128778Y-91204189I458889J38D01*
G01*
X139500000Y-34120000D02*
G75*
G03*
X139510000Y-34130000I10000J0D01*
G01*
X309975611Y-91664169D02*
G75*
G03*
X309515620Y-91204189I-460011J-31D01*
G01*
X224926851Y-89811500D02*
G75*
G03*
X224467200Y-90271151I49J-459700D01*
G01*
X247669900Y-90271292D02*
G75*
G03*
X247210135Y-89811500I-459800J-8D01*
G01*
X140500000Y-34130000D02*
G75*
G03*
X140490000Y-34120000I-10000J0D01*
G01*
X224008865Y-98972700D02*
G75*
G03*
X224467200Y-98514365I35J458300D01*
G01*
X137582442Y-34119999D02*
G75*
G03*
X137122699Y-34579743I-42J-459701D01*
G01*
X178405900Y-78353901D02*
G75*
G03*
X177946299Y-77894300I-459600J1D01*
G01*
X173950000Y-37702376D02*
X173950000Y-35600000D01*
X159324700Y-38162100D02*
X173490276Y-38162100D01*
X173490276Y-38162100D02*
G75*
G03*
X173950000Y-37702376I24J459700D01*
G01*
X140491409Y-36661409D02*
X140500000Y-36670000D01*
X136619670Y-45588334D02*
X136619670Y-37120396D01*
X147116321Y-52318064D02*
X147132157Y-52333900D01*
X153106573Y-52793409D02*
X153106573Y-53914129D01*
X137019641Y-36661409D02*
X140491409Y-36661409D01*
X147132157Y-52333900D02*
X152647064Y-52333900D01*
X164444800Y-53914289D02*
X164444800Y-52736400D01*
X141019500Y-46047900D02*
X137079236Y-46047900D01*
X141020000Y-46048400D02*
X141019500Y-46047900D01*
X153566344Y-54373900D02*
X163985189Y-54373900D01*
X136619700Y-45588334D02*
G75*
G03*
X137079236Y-46047900I459600J34D01*
G01*
X137019641Y-36661406D02*
G75*
G03*
X136619671Y-37120396I65559J-460894D01*
G01*
X153106500Y-53914129D02*
G75*
G03*
X153566344Y-54373900I459800J29D01*
G01*
X163985189Y-54373900D02*
G75*
G03*
X164444800Y-53914289I11J459600D01*
G01*
X153106600Y-52793409D02*
G75*
G03*
X152647064Y-52333900I-459500J9D01*
G01*
X155199900Y-43797868D02*
X155199900Y-45910051D01*
X150660000Y-39190000D02*
X150660000Y-42878795D01*
X211365100Y-58762257D02*
X211365100Y-58170891D01*
X151119705Y-43338500D02*
X154740532Y-43338500D01*
X236770150Y-59221850D02*
X211824693Y-59221850D01*
X155659349Y-46369500D02*
X163720300Y-46369500D01*
X210904709Y-57710500D02*
X163279200Y-57710500D01*
X155199900Y-43797868D02*
G75*
G03*
X154740532Y-43338500I-459400J-32D01*
G01*
X236770150Y-59221800D02*
G75*
G03*
X236936400Y-59055600I50J166200D01*
G01*
X211365150Y-58762257D02*
G75*
G03*
X211824693Y-59221850I459550J-43D01*
G01*
X150660000Y-42878795D02*
G75*
G03*
X151119705Y-43338500I459700J-5D01*
G01*
X211365100Y-58170891D02*
G75*
G03*
X210904709Y-57710500I-460400J-9D01*
G01*
X155199900Y-45910051D02*
G75*
G03*
X155659349Y-46369500I459400J-49D01*
G01*
X214946300Y-47552763D02*
X214946300Y-49068270D01*
X226455276Y-50176765D02*
X227665100Y-51386588D01*
X304975600Y-106800000D02*
X257277300Y-106800000D01*
X215405730Y-49527700D02*
X224888295Y-49527700D01*
X148579795Y-47094000D02*
X214487537Y-47094000D01*
X148120000Y-39190000D02*
X148120000Y-40190000D01*
X148120000Y-40190000D02*
X148120000Y-46634205D01*
X214946300Y-47552763D02*
G75*
G03*
X214487537Y-47094000I-458800J-37D01*
G01*
X148120000Y-46634205D02*
G75*
G03*
X148579795Y-47094000I459800J5D01*
G01*
X226455290Y-50176751D02*
G75*
G03*
X224888295Y-49527700I-1566990J-1567049D01*
G01*
X214946300Y-49068270D02*
G75*
G03*
X215405730Y-49527700I459400J-30D01*
G01*
M02*
