G04 #@! TF.GenerationSoftware,KiCad,Pcbnew,7.0.9*
G04 #@! TF.CreationDate,2024-02-06T21:39:52+09:00*
G04 #@! TF.ProjectId,tijuana,74696a75-616e-4612-9e6b-696361645f70,rev?*
G04 #@! TF.SameCoordinates,Original*
G04 #@! TF.FileFunction,Soldermask,Top*
G04 #@! TF.FilePolarity,Negative*
%FSLAX46Y46*%
G04 Gerber Fmt 4.6, Leading zero omitted, Abs format (unit mm)*
G04 Created by KiCad (PCBNEW 7.0.9) date 2024-02-06 21:39:52*
%MOMM*%
%LPD*%
G01*
G04 APERTURE LIST*
%ADD10C,3.000000*%
%ADD11C,4.000000*%
%ADD12O,1.600000X1.300000*%
%ADD13C,3.100000*%
%ADD14C,2.000000*%
%ADD15C,1.250000*%
%ADD16O,3.500000X1.500000*%
%ADD17O,1.500000X3.500000*%
G04 APERTURE END LIST*
D10*
X39210000Y-101840000D03*
D11*
X35400000Y-99300000D03*
D10*
X32860000Y-104380000D03*
D12*
X32900000Y-106800000D03*
X37900000Y-106800000D03*
X35400000Y-106800000D03*
D13*
X40950000Y-99300000D03*
X29850000Y-99300000D03*
D12*
X32900000Y-92300000D03*
X37900000Y-92300000D03*
D14*
X176485900Y-106907200D03*
D10*
X175215900Y-109447200D03*
D11*
X171405900Y-106907200D03*
D10*
X168865900Y-111987200D03*
D14*
X166325900Y-106907200D03*
X71213725Y-28494763D03*
D10*
X69769638Y-30939985D03*
D11*
X66146100Y-28140400D03*
D10*
X63257924Y-33030844D03*
D14*
X61078475Y-27786037D03*
X118616425Y-71482763D03*
D10*
X117172338Y-73927985D03*
D11*
X113548800Y-71128400D03*
D10*
X110660624Y-76018844D03*
D14*
X108481175Y-70774037D03*
X299795705Y-46604011D03*
D10*
X298615124Y-49186786D03*
D11*
X294718800Y-46781300D03*
D10*
X292357637Y-51946850D03*
D14*
X289641895Y-46958589D03*
X32499900Y-26785400D03*
D10*
X31229900Y-29325400D03*
D11*
X27419900Y-26785400D03*
D10*
X24879900Y-31865400D03*
D14*
X22339900Y-26785400D03*
X241844825Y-50816937D03*
D10*
X240755100Y-53439341D03*
D11*
X236777200Y-51171300D03*
D10*
X234597750Y-56416107D03*
D14*
X231709575Y-51525663D03*
X112037425Y-51525663D03*
D10*
X110593338Y-53970885D03*
D11*
X106969800Y-51171300D03*
D10*
X104081624Y-56061744D03*
D14*
X101902175Y-50816937D03*
X279394725Y-94182263D03*
D10*
X277950638Y-96627485D03*
D11*
X274327100Y-93827900D03*
D10*
X271438924Y-98718344D03*
D14*
X269259475Y-93473537D03*
X73607225Y-93503537D03*
D10*
X72517500Y-96125941D03*
D11*
X68539600Y-93857900D03*
D10*
X66360150Y-99102707D03*
D14*
X63471975Y-94212263D03*
X319172300Y-46440000D03*
D10*
X317902300Y-48980000D03*
D11*
X314092300Y-46440000D03*
D10*
X311552300Y-51520000D03*
D14*
X309012300Y-46440000D03*
X176485900Y-49757200D03*
D10*
X175215900Y-52297200D03*
D11*
X171405900Y-49757200D03*
D10*
X168865900Y-54837200D03*
D14*
X166325900Y-49757200D03*
X60675705Y-66925689D03*
D10*
X59317834Y-69419820D03*
D11*
X55598800Y-66748400D03*
D10*
X52883058Y-71736661D03*
D14*
X50521895Y-66571111D03*
X54096705Y-46958589D03*
D10*
X52738834Y-49452720D03*
D11*
X49019800Y-46781300D03*
D10*
X46304058Y-51769561D03*
D14*
X43942895Y-46604011D03*
X131379600Y-91835300D03*
D10*
X130109600Y-94375300D03*
D11*
X126299600Y-91835300D03*
D10*
X123759600Y-96915300D03*
D14*
X121219600Y-91835300D03*
X90498271Y-30361405D03*
D10*
X88969726Y-32754739D03*
D11*
X85446100Y-29830400D03*
D10*
X82389010Y-34617069D03*
D14*
X80393929Y-29299395D03*
X216580905Y-32863111D03*
D10*
X215400324Y-35445886D03*
D11*
X211504000Y-33040400D03*
D10*
X209142837Y-38205950D03*
D14*
X206427095Y-33217689D03*
X131396705Y-52358589D03*
D10*
X130038834Y-54852720D03*
D11*
X126319800Y-52181300D03*
D10*
X123604058Y-57169561D03*
D14*
X121242895Y-52004011D03*
X176485900Y-87857200D03*
D10*
X175215900Y-90397200D03*
D11*
X171405900Y-87857200D03*
D10*
X168865900Y-92937200D03*
D14*
X166325900Y-87857200D03*
X234406425Y-70774037D03*
D10*
X233316700Y-73396441D03*
D11*
X229338800Y-71128400D03*
D10*
X227159350Y-76373207D03*
D14*
X224271175Y-71482763D03*
X215065705Y-71964011D03*
D10*
X213885124Y-74546786D03*
D11*
X209988800Y-72141300D03*
D10*
X207627637Y-77306850D03*
D14*
X204911895Y-72318589D03*
X137975705Y-72318589D03*
D10*
X136617834Y-74812720D03*
D11*
X132898800Y-72141300D03*
D10*
X130183058Y-77129561D03*
D14*
X127821895Y-71964011D03*
X195535900Y-49757200D03*
D10*
X194265900Y-52297200D03*
D11*
X190455900Y-49757200D03*
D10*
X187915900Y-54837200D03*
D14*
X185375900Y-49757200D03*
X261126771Y-48950295D03*
D10*
X260129231Y-51609132D03*
D11*
X256074600Y-49481300D03*
D10*
X254079519Y-54798974D03*
D14*
X251022429Y-50012305D03*
X280443025Y-47446937D03*
D10*
X279353300Y-50069341D03*
D11*
X275375400Y-47801300D03*
D10*
X273195950Y-53046107D03*
D14*
X270307775Y-48155663D03*
X157435900Y-49757200D03*
D10*
X156165900Y-52297200D03*
D11*
X152355900Y-49757200D03*
D10*
X149815900Y-54837200D03*
D14*
X147275900Y-49757200D03*
X292380705Y-66571111D03*
D10*
X291200124Y-69153886D03*
D11*
X287303800Y-66748400D03*
D10*
X284942637Y-71913950D03*
D14*
X282226895Y-66925689D03*
X80016425Y-68112763D03*
D10*
X78572338Y-70557985D03*
D11*
X74948800Y-67758400D03*
D10*
X72060624Y-72648844D03*
D14*
X69881175Y-67404037D03*
X195535900Y-68807200D03*
D10*
X194265900Y-71347200D03*
D11*
X190455900Y-68807200D03*
D10*
X187915900Y-73887200D03*
D14*
X185375900Y-68807200D03*
X255190171Y-29809395D03*
D10*
X254192631Y-32468232D03*
D11*
X250138000Y-30340400D03*
D10*
X248142919Y-35658074D03*
D14*
X245085829Y-30871405D03*
X316517900Y-66408400D03*
D10*
X315247900Y-68948400D03*
D11*
X311437900Y-66408400D03*
D10*
X308897900Y-71488400D03*
D14*
X306357900Y-66408400D03*
D15*
X140520000Y-18920000D03*
D16*
X139520000Y-18920000D03*
D15*
X140520000Y-21440000D03*
D16*
X139520000Y-21440000D03*
D15*
X140520000Y-23980000D03*
D16*
X139520000Y-23980000D03*
D15*
X140520000Y-26510000D03*
D16*
X139520000Y-26510000D03*
D15*
X140520000Y-29060000D03*
D16*
X139520000Y-29060000D03*
D15*
X140520000Y-31600000D03*
D16*
X139520000Y-31600000D03*
D15*
X140520000Y-34140000D03*
D16*
X139520000Y-34140000D03*
D15*
X140520000Y-36680000D03*
D16*
X139520000Y-36680000D03*
D15*
X140520000Y-39220000D03*
D16*
X139520000Y-39220000D03*
D15*
X143060000Y-39220000D03*
D17*
X143060000Y-40220000D03*
D15*
X145610000Y-39220000D03*
D17*
X145610000Y-40220000D03*
D15*
X148140334Y-39220000D03*
D17*
X148140334Y-40220000D03*
D15*
X150690334Y-39220000D03*
D17*
X150690334Y-40220000D03*
D15*
X153220000Y-39220000D03*
D17*
X153220000Y-40220000D03*
D15*
X155760000Y-39204341D03*
D16*
X156760000Y-39204341D03*
D15*
X155760000Y-36680000D03*
D16*
X156760000Y-36680000D03*
D15*
X155760000Y-34140000D03*
D16*
X156760000Y-34140000D03*
D15*
X155760000Y-31600000D03*
D16*
X156760000Y-31600000D03*
D15*
X155760000Y-29060000D03*
D16*
X156760000Y-29060000D03*
D15*
X155760000Y-26510000D03*
D16*
X156760000Y-26510000D03*
D15*
X155760000Y-23980000D03*
D16*
X156760000Y-23980000D03*
D15*
X155760000Y-21440000D03*
D16*
X156760000Y-21440000D03*
D15*
X155760000Y-18920000D03*
D16*
X156760000Y-18920000D03*
D14*
X129183005Y-32707689D03*
D10*
X127825134Y-35201820D03*
D11*
X124106100Y-32530400D03*
D10*
X121390358Y-37518661D03*
D14*
X119029195Y-32353111D03*
X32345900Y-46451300D03*
D10*
X31075900Y-48991300D03*
D11*
X27265900Y-46451300D03*
D10*
X24725900Y-51531300D03*
D14*
X22185900Y-46451300D03*
X102476505Y-92250611D03*
D10*
X101295924Y-94833386D03*
D11*
X97399600Y-92427900D03*
D10*
X95038437Y-97593450D03*
D14*
X92322695Y-92605189D03*
X92721971Y-50012305D03*
D10*
X91193426Y-52405639D03*
D11*
X87669800Y-49481300D03*
D10*
X84612710Y-54267969D03*
D14*
X82617629Y-48950295D03*
X99300971Y-69969405D03*
D10*
X97772426Y-72362739D03*
D11*
X94248800Y-69438400D03*
D10*
X91191710Y-74225069D03*
D14*
X89196629Y-68907395D03*
X235910125Y-31676037D03*
D10*
X234820400Y-34298441D03*
D11*
X230842500Y-32030400D03*
D10*
X228663050Y-37275207D03*
D14*
X225774875Y-32384763D03*
X195535900Y-87857200D03*
D10*
X194265900Y-90397200D03*
D11*
X190455900Y-87857200D03*
D10*
X187915900Y-92937200D03*
D14*
X185375900Y-87857200D03*
X36545900Y-66408400D03*
D10*
X35275900Y-68948400D03*
D11*
X31465900Y-66408400D03*
D10*
X28925900Y-71488400D03*
D14*
X26385900Y-66408400D03*
X250534005Y-92579189D03*
D10*
X249176134Y-95073320D03*
D11*
X245457100Y-92401900D03*
D10*
X242741358Y-97390161D03*
D14*
X240380195Y-92224611D03*
X253690971Y-68907395D03*
D10*
X252693431Y-71566232D03*
D11*
X248638800Y-69438400D03*
D10*
X246643719Y-74756074D03*
D14*
X243586629Y-69969405D03*
X293855205Y-27457111D03*
D10*
X292674624Y-30039886D03*
D11*
X288778300Y-27634400D03*
D10*
X286417137Y-32799950D03*
D14*
X283701395Y-27811689D03*
X222500605Y-52004011D03*
D10*
X221320024Y-54586786D03*
D11*
X217423700Y-52181300D03*
D10*
X215062537Y-57346850D03*
D14*
X212346795Y-52358589D03*
X274504125Y-28296037D03*
D10*
X273414400Y-30918441D03*
D11*
X269436500Y-28650400D03*
D10*
X267257050Y-33895207D03*
D14*
X264368875Y-29004763D03*
X221637100Y-91816000D03*
D10*
X220367100Y-94356000D03*
D11*
X216557100Y-91816000D03*
D10*
X214017100Y-96896000D03*
D14*
X211477100Y-91816000D03*
X273016425Y-67404037D03*
D10*
X271926700Y-70026441D03*
D11*
X267948800Y-67758400D03*
D10*
X265769350Y-73003207D03*
D14*
X262881175Y-68112763D03*
X73437425Y-48155663D03*
D10*
X71993338Y-50600885D03*
D11*
X68369800Y-47801300D03*
D10*
X65481624Y-52691744D03*
D14*
X63302175Y-47446937D03*
X157435900Y-87857200D03*
D10*
X156165900Y-90397200D03*
D11*
X152355900Y-87857200D03*
D10*
X149815900Y-92937200D03*
D14*
X147275900Y-87857200D03*
X176485900Y-68807200D03*
D10*
X175215900Y-71347200D03*
D11*
X171405900Y-68807200D03*
D10*
X168865900Y-73887200D03*
D14*
X166325900Y-68807200D03*
X109823725Y-31874763D03*
D10*
X108379638Y-34319985D03*
D11*
X104756100Y-31520400D03*
D10*
X101867924Y-36410844D03*
D14*
X99688475Y-31166037D03*
X157435900Y-68807200D03*
D10*
X156165900Y-71347200D03*
D11*
X152355900Y-68807200D03*
D10*
X149815900Y-73887200D03*
D14*
X147275900Y-68807200D03*
D10*
X311285600Y-101840000D03*
D11*
X307475600Y-99300000D03*
D10*
X304935600Y-104380000D03*
D12*
X304975600Y-106800000D03*
X309975600Y-106800000D03*
X307475600Y-106800000D03*
D13*
X313025600Y-99300000D03*
X301925600Y-99300000D03*
D12*
X304975600Y-92300000D03*
X309975600Y-92300000D03*
D10*
X175260000Y-30640000D03*
D11*
X171450000Y-28100000D03*
D10*
X168910000Y-33180000D03*
D12*
X168950000Y-35600000D03*
X173950000Y-35600000D03*
X171450000Y-35600000D03*
D13*
X177000000Y-28100000D03*
X165900000Y-28100000D03*
D12*
X168950000Y-21100000D03*
X173950000Y-21100000D03*
D14*
X315612700Y-27295400D03*
D10*
X314342700Y-29835400D03*
D11*
X310532700Y-27295400D03*
D10*
X307992700Y-32375400D03*
D14*
X305452700Y-27295400D03*
X51871005Y-27301689D03*
D10*
X50513134Y-29795820D03*
D11*
X46794100Y-27124400D03*
D10*
X44078358Y-32112661D03*
D14*
X41717195Y-26947111D03*
X157435900Y-106907200D03*
D10*
X156165900Y-109447200D03*
D11*
X152355900Y-106907200D03*
D10*
X149815900Y-111987200D03*
D14*
X147275900Y-106907200D03*
X195535900Y-106907200D03*
D10*
X194265900Y-109447200D03*
D11*
X190455900Y-106907200D03*
D10*
X187915900Y-111987200D03*
D14*
X185375900Y-106907200D03*
M02*
