G04 #@! TF.GenerationSoftware,KiCad,Pcbnew,7.0.9*
G04 #@! TF.CreationDate,2024-02-06T22:06:33+09:00*
G04 #@! TF.ProjectId,tijuana,74696a75-616e-4612-9e6b-696361645f70,rev?*
G04 #@! TF.SameCoordinates,Original*
G04 #@! TF.FileFunction,Legend,Top*
G04 #@! TF.FilePolarity,Positive*
%FSLAX46Y46*%
G04 Gerber Fmt 4.6, Leading zero omitted, Abs format (unit mm)*
G04 Created by KiCad (PCBNEW 7.0.9) date 2024-02-06 22:06:33*
%MOMM*%
%LPD*%
G01*
G04 APERTURE LIST*
G04 APERTURE END LIST*
G36*
X203927099Y-106560706D02*
G01*
X204060963Y-106563252D01*
X204148717Y-106567024D01*
X204177435Y-106570294D01*
X204230076Y-106597766D01*
X204241103Y-106656316D01*
X204239613Y-106672317D01*
X204229881Y-106756728D01*
X203864581Y-106765487D01*
X203499281Y-106774246D01*
X203499281Y-107799208D01*
X203499281Y-108824170D01*
X203411194Y-108824170D01*
X203339992Y-108817512D01*
X203302382Y-108803444D01*
X203297362Y-108768420D01*
X203292781Y-108678741D01*
X203288789Y-108541929D01*
X203285540Y-108365505D01*
X203283185Y-108156993D01*
X203281876Y-107923915D01*
X203281655Y-107777495D01*
X203281655Y-106772273D01*
X202922158Y-106772273D01*
X202562661Y-106772273D01*
X202572403Y-106671232D01*
X202582145Y-106570192D01*
X203343834Y-106561438D01*
X203559036Y-106559698D01*
X203756624Y-106559488D01*
X203927099Y-106560706D01*
G37*
G36*
X209328534Y-112601526D02*
G01*
X209328534Y-115275210D01*
X208527210Y-115283509D01*
X208271214Y-115285501D01*
X208071482Y-115285402D01*
X207922128Y-115282987D01*
X207817266Y-115278033D01*
X207751009Y-115270315D01*
X207717471Y-115259608D01*
X207710860Y-115252420D01*
X207708678Y-115216021D01*
X207706776Y-115122049D01*
X207705166Y-114975108D01*
X207703861Y-114779804D01*
X207702873Y-114540739D01*
X207702213Y-114262521D01*
X207701893Y-113949752D01*
X207701925Y-113607038D01*
X207702322Y-113238984D01*
X207703096Y-112850194D01*
X207703861Y-112570437D01*
X207710802Y-110285370D01*
X208069416Y-110285370D01*
X208069416Y-112601526D01*
X208069416Y-114917683D01*
X208520211Y-114917683D01*
X208971007Y-114917683D01*
X208971007Y-112601526D01*
X208971007Y-110285370D01*
X208520211Y-110285370D01*
X208069416Y-110285370D01*
X207710802Y-110285370D01*
X207711888Y-109927842D01*
X208520211Y-109927842D01*
X209328534Y-109927842D01*
X209328534Y-112601526D01*
G37*
G36*
X207354360Y-110346865D02*
G01*
X207354360Y-111154872D01*
X206507176Y-111163144D01*
X205659991Y-111171416D01*
X205651997Y-113231086D01*
X205644002Y-115290755D01*
X204835901Y-115290755D01*
X204027800Y-115290755D01*
X204027800Y-113223813D01*
X204027800Y-111156871D01*
X203180615Y-111148599D01*
X202333430Y-111140327D01*
X202333430Y-110347548D01*
X202333430Y-109881208D01*
X202690958Y-109881208D01*
X202690958Y-110347548D01*
X202690958Y-110813889D01*
X203527044Y-110813889D01*
X203779120Y-110814230D01*
X203975928Y-110815526D01*
X204124380Y-110818182D01*
X204231384Y-110822606D01*
X204303849Y-110829202D01*
X204348685Y-110838378D01*
X204372802Y-110850541D01*
X204382434Y-110864194D01*
X204385778Y-110903334D01*
X204388912Y-110999278D01*
X204391786Y-111146653D01*
X204394353Y-111340086D01*
X204396565Y-111574202D01*
X204398372Y-111843628D01*
X204399727Y-112142990D01*
X204400580Y-112466914D01*
X204400884Y-112810028D01*
X204400865Y-112908319D01*
X204400719Y-113254929D01*
X204400595Y-113583157D01*
X204400493Y-113887723D01*
X204400415Y-114163345D01*
X204400360Y-114404740D01*
X204400332Y-114606628D01*
X204400329Y-114763725D01*
X204400355Y-114870750D01*
X204400410Y-114922422D01*
X204400431Y-114926309D01*
X204429832Y-114934354D01*
X204510348Y-114940048D01*
X204630947Y-114943005D01*
X204780596Y-114942838D01*
X204843895Y-114941854D01*
X205286919Y-114933228D01*
X205294913Y-112873558D01*
X205302907Y-110813889D01*
X206142098Y-110813889D01*
X206981288Y-110813889D01*
X206981288Y-110347548D01*
X206981288Y-109881208D01*
X204836123Y-109881208D01*
X202690958Y-109881208D01*
X202333430Y-109881208D01*
X202333430Y-109554770D01*
X204843895Y-109546814D01*
X207354360Y-109538857D01*
X207354360Y-110346865D01*
G37*
G36*
X205141639Y-106591625D02*
G01*
X205346146Y-106595241D01*
X205498615Y-106599272D01*
X205609179Y-106605071D01*
X205687974Y-106613992D01*
X205745132Y-106627386D01*
X205790786Y-106646607D01*
X205835072Y-106673007D01*
X205856428Y-106687043D01*
X205956196Y-106769023D01*
X206048092Y-106869604D01*
X206070417Y-106900520D01*
X206144455Y-107062733D01*
X206171259Y-107241919D01*
X206154530Y-107425195D01*
X206097968Y-107599678D01*
X206005275Y-107752484D01*
X205880152Y-107870728D01*
X205775890Y-107925795D01*
X205701748Y-107953983D01*
X205763192Y-108054866D01*
X205849829Y-108200740D01*
X205934934Y-108350418D01*
X206013127Y-108493673D01*
X206079029Y-108620283D01*
X206127263Y-108720022D01*
X206152449Y-108782665D01*
X206154231Y-108798241D01*
X206114499Y-108817353D01*
X206052553Y-108824170D01*
X206016939Y-108819601D01*
X205982865Y-108800576D01*
X205944163Y-108759118D01*
X205894664Y-108687250D01*
X205828200Y-108576995D01*
X205738601Y-108420376D01*
X205733997Y-108412236D01*
X205501095Y-108000302D01*
X205129747Y-108000302D01*
X204758400Y-108000302D01*
X204749725Y-108412236D01*
X204741050Y-108824170D01*
X204648685Y-108824170D01*
X204556319Y-108824170D01*
X204556319Y-107703069D01*
X204556319Y-106772273D01*
X204742855Y-106772273D01*
X204742855Y-107285247D01*
X204742855Y-107798221D01*
X205148015Y-107798221D01*
X205365671Y-107794479D01*
X205525060Y-107783053D01*
X205629657Y-107763650D01*
X205653217Y-107755242D01*
X205790499Y-107672298D01*
X205889123Y-107552549D01*
X205940233Y-107443874D01*
X205976946Y-107280613D01*
X205954264Y-107131651D01*
X205870895Y-106989928D01*
X205853252Y-106969058D01*
X205780549Y-106894841D01*
X205705198Y-106841650D01*
X205615218Y-106806140D01*
X205498631Y-106784970D01*
X205343456Y-106774797D01*
X205148015Y-106772273D01*
X204742855Y-106772273D01*
X204556319Y-106772273D01*
X204556319Y-106581968D01*
X205141639Y-106591625D01*
G37*
G36*
X217267555Y-106618842D02*
G01*
X217343653Y-106648391D01*
X217524904Y-106766533D01*
X217676707Y-106931097D01*
X217795433Y-107131940D01*
X217877454Y-107358918D01*
X217919139Y-107601888D01*
X217916861Y-107850708D01*
X217866990Y-108095234D01*
X217864322Y-108103638D01*
X217763700Y-108334866D01*
X217624356Y-108533307D01*
X217455030Y-108687103D01*
X217414914Y-108713588D01*
X217224388Y-108796682D01*
X217020158Y-108824330D01*
X216816591Y-108795876D01*
X216690949Y-108746740D01*
X216496309Y-108614116D01*
X216331895Y-108430967D01*
X216219028Y-108237203D01*
X216182712Y-108153650D01*
X216158972Y-108077115D01*
X216145196Y-107990652D01*
X216138778Y-107877312D01*
X216137399Y-107747440D01*
X216318144Y-107747440D01*
X216356783Y-107987040D01*
X216436576Y-108194988D01*
X216554304Y-108384974D01*
X216699139Y-108519655D01*
X216859260Y-108596383D01*
X216952881Y-108623708D01*
X217017311Y-108632654D01*
X217082520Y-108623987D01*
X217158533Y-108604011D01*
X217278694Y-108547512D01*
X217405534Y-108450562D01*
X217520888Y-108329710D01*
X217606593Y-108201505D01*
X217611836Y-108190990D01*
X217686907Y-107984802D01*
X217719198Y-107774821D01*
X217712663Y-107567975D01*
X217671256Y-107371189D01*
X217598930Y-107191391D01*
X217499639Y-107035508D01*
X217377336Y-106910466D01*
X217235977Y-106823192D01*
X217079513Y-106780613D01*
X216911898Y-106789655D01*
X216826542Y-106815164D01*
X216660167Y-106911064D01*
X216520391Y-107057869D01*
X216412600Y-107248040D01*
X216342177Y-107474032D01*
X216336928Y-107500840D01*
X216318144Y-107747440D01*
X216137399Y-107747440D01*
X216137109Y-107720147D01*
X216137102Y-107704953D01*
X216138377Y-107544766D01*
X216144091Y-107429271D01*
X216157082Y-107341005D01*
X216180183Y-107262502D01*
X216216232Y-107176297D01*
X216226625Y-107153605D01*
X216323698Y-106989114D01*
X216452531Y-106835003D01*
X216596915Y-106708053D01*
X216734900Y-106627401D01*
X216900082Y-106586184D01*
X217086527Y-106583638D01*
X217267555Y-106618842D01*
G37*
G36*
X233099277Y-111099686D02*
G01*
X233266536Y-111109237D01*
X233588876Y-112220816D01*
X233661462Y-112473945D01*
X233727390Y-112709314D01*
X233784842Y-112920019D01*
X233832005Y-113099155D01*
X233867062Y-113239817D01*
X233888198Y-113335102D01*
X233893598Y-113378103D01*
X233893372Y-113378894D01*
X233880073Y-113393414D01*
X233848078Y-113404626D01*
X233790468Y-113412926D01*
X233700326Y-113418711D01*
X233570735Y-113422376D01*
X233394776Y-113424317D01*
X233165531Y-113424931D01*
X233089547Y-113424918D01*
X232873399Y-113423903D01*
X232677098Y-113421297D01*
X232509441Y-113417354D01*
X232379223Y-113412325D01*
X232295243Y-113406465D01*
X232267134Y-113401268D01*
X232262568Y-113375008D01*
X232271885Y-113308419D01*
X232295881Y-113198333D01*
X232335354Y-113041584D01*
X232338749Y-113029005D01*
X232721808Y-113029005D01*
X232751133Y-113040577D01*
X232827444Y-113048266D01*
X232935804Y-113052266D01*
X233061275Y-113052771D01*
X233188920Y-113049976D01*
X233303799Y-113044074D01*
X233390976Y-113035259D01*
X233435513Y-113023725D01*
X233438326Y-113019700D01*
X233429757Y-112975983D01*
X233406250Y-112886583D01*
X233371112Y-112762315D01*
X233327646Y-112613999D01*
X233279156Y-112452452D01*
X233228948Y-112288490D01*
X233180324Y-112132932D01*
X233136590Y-111996595D01*
X233101050Y-111890298D01*
X233077008Y-111824856D01*
X233068535Y-111809093D01*
X233056072Y-111837391D01*
X233030535Y-111914858D01*
X232995015Y-112030620D01*
X232952603Y-112173805D01*
X232906388Y-112333540D01*
X232859461Y-112498953D01*
X232814912Y-112659170D01*
X232775832Y-112803319D01*
X232745310Y-112920528D01*
X232726437Y-112999923D01*
X232721808Y-113029005D01*
X232338749Y-113029005D01*
X232391101Y-112835007D01*
X232463919Y-112575435D01*
X232554128Y-112261347D01*
X232627931Y-112008250D01*
X232697257Y-111773807D01*
X232760035Y-111564780D01*
X232814192Y-111387934D01*
X232857654Y-111250029D01*
X232888350Y-111157827D01*
X232904205Y-111118093D01*
X232904786Y-111117368D01*
X232949024Y-111103751D01*
X233033253Y-111098115D01*
X233099277Y-111099686D01*
G37*
G36*
X207611466Y-107188986D02*
G01*
X207795890Y-107279629D01*
X207954797Y-107412825D01*
X208079013Y-107583920D01*
X208159366Y-107788263D01*
X208164863Y-107811362D01*
X208183437Y-107892972D01*
X208193730Y-107956007D01*
X208189161Y-108002858D01*
X208163147Y-108035918D01*
X208109106Y-108057577D01*
X208020456Y-108070227D01*
X207890615Y-108076260D01*
X207713002Y-108078067D01*
X207481034Y-108078041D01*
X207430965Y-108078026D01*
X206697294Y-108078026D01*
X206718872Y-108147977D01*
X206795844Y-108319691D01*
X206917528Y-108462699D01*
X206932658Y-108476264D01*
X207093575Y-108580033D01*
X207268454Y-108626441D01*
X207448705Y-108616071D01*
X207625739Y-108549507D01*
X207790967Y-108427334D01*
X207801380Y-108417199D01*
X207887736Y-108336452D01*
X207946132Y-108296136D01*
X207988764Y-108289210D01*
X208009653Y-108296944D01*
X208069179Y-108339521D01*
X208078847Y-108387474D01*
X208040569Y-108457761D01*
X208029521Y-108473029D01*
X207874080Y-108635378D01*
X207687967Y-108750166D01*
X207481951Y-108813969D01*
X207266803Y-108823361D01*
X207065777Y-108779489D01*
X206869676Y-108681468D01*
X206710738Y-108537592D01*
X206637034Y-108438384D01*
X206581321Y-108344457D01*
X206547993Y-108257892D01*
X206529718Y-108153710D01*
X206521169Y-108043695D01*
X206516681Y-107908875D01*
X206518066Y-107891490D01*
X206705825Y-107891490D01*
X207340986Y-107891490D01*
X207586721Y-107889916D01*
X207773379Y-107885225D01*
X207900112Y-107877459D01*
X207966070Y-107866662D01*
X207976148Y-107859162D01*
X207956407Y-107788252D01*
X207905478Y-107692750D01*
X207835796Y-107592368D01*
X207759800Y-107506817D01*
X207745659Y-107493853D01*
X207583685Y-107386393D01*
X207411983Y-107340262D01*
X207229830Y-107355363D01*
X207086463Y-107406563D01*
X206929494Y-107507475D01*
X206807248Y-107642074D01*
X206733489Y-107795028D01*
X206705825Y-107891490D01*
X206518066Y-107891490D01*
X206524545Y-107810171D01*
X206548729Y-107722091D01*
X206584249Y-107638329D01*
X206690547Y-107456629D01*
X206825709Y-107320606D01*
X206996833Y-107218907D01*
X207202764Y-107153972D01*
X207410700Y-107145549D01*
X207611466Y-107188986D01*
G37*
G36*
X222273988Y-111396814D02*
G01*
X222353846Y-111660774D01*
X222433298Y-111928524D01*
X222510432Y-112193165D01*
X222583337Y-112447797D01*
X222650100Y-112685524D01*
X222708807Y-112899445D01*
X222757547Y-113082662D01*
X222794407Y-113228277D01*
X222817475Y-113329391D01*
X222824837Y-113379105D01*
X222824354Y-113382045D01*
X222809284Y-113395569D01*
X222771355Y-113406079D01*
X222704059Y-113413916D01*
X222600882Y-113419424D01*
X222455316Y-113422944D01*
X222260847Y-113424820D01*
X222010967Y-113425393D01*
X222000255Y-113425394D01*
X221782425Y-113424388D01*
X221585570Y-113421555D01*
X221418087Y-113417171D01*
X221288369Y-113411515D01*
X221204813Y-113404862D01*
X221175980Y-113398193D01*
X221180578Y-113363183D01*
X221200968Y-113275253D01*
X221235345Y-113141119D01*
X221263219Y-113037184D01*
X221650688Y-113037184D01*
X221687309Y-113044885D01*
X221768950Y-113049817D01*
X221880703Y-113052149D01*
X222007663Y-113052050D01*
X222134920Y-113049689D01*
X222247569Y-113045236D01*
X222330703Y-113038861D01*
X222369414Y-113030733D01*
X222370517Y-113029006D01*
X222361998Y-112987146D01*
X222338624Y-112899158D01*
X222303665Y-112775819D01*
X222260395Y-112627909D01*
X222212085Y-112466207D01*
X222162007Y-112301492D01*
X222113434Y-112144543D01*
X222069637Y-112006139D01*
X222033889Y-111897058D01*
X222009462Y-111828080D01*
X222000170Y-111809004D01*
X221985997Y-111837346D01*
X221959032Y-111914941D01*
X221922367Y-112030926D01*
X221879094Y-112174438D01*
X221832303Y-112334613D01*
X221785085Y-112500589D01*
X221740531Y-112661503D01*
X221701734Y-112806490D01*
X221671783Y-112924690D01*
X221653770Y-113005237D01*
X221650688Y-113037184D01*
X221263219Y-113037184D01*
X221281907Y-112967499D01*
X221338847Y-112761108D01*
X221404361Y-112528664D01*
X221476644Y-112276882D01*
X221485039Y-112247922D01*
X221558354Y-111994851D01*
X221625908Y-111760893D01*
X221685803Y-111552686D01*
X221736137Y-111376865D01*
X221775014Y-111240068D01*
X221800532Y-111148930D01*
X221810793Y-111110089D01*
X221810909Y-111109273D01*
X221839151Y-111101029D01*
X221912512Y-111095381D01*
X221996110Y-111093693D01*
X222181311Y-111093693D01*
X222273988Y-111396814D01*
G37*
G36*
X208694001Y-106572505D02*
G01*
X208722244Y-106616609D01*
X208740928Y-106698917D01*
X208752404Y-106826723D01*
X208759026Y-107007325D01*
X208760340Y-107068850D01*
X208768926Y-107514611D01*
X209508044Y-107062531D01*
X209730347Y-106927218D01*
X209905901Y-106822149D01*
X210040486Y-106744291D01*
X210139879Y-106690611D01*
X210209859Y-106658079D01*
X210256203Y-106643661D01*
X210284688Y-106644325D01*
X210294551Y-106649780D01*
X210323296Y-106679915D01*
X210333170Y-106711972D01*
X210319679Y-106749766D01*
X210278330Y-106797111D01*
X210204627Y-106857819D01*
X210094079Y-106935706D01*
X209942190Y-107034585D01*
X209744468Y-107158270D01*
X209566372Y-107267783D01*
X208809351Y-107731343D01*
X208929041Y-107805798D01*
X208989988Y-107843652D01*
X209094402Y-107908438D01*
X209232900Y-107994336D01*
X209396094Y-108095525D01*
X209574601Y-108206186D01*
X209661652Y-108260143D01*
X209836872Y-108369518D01*
X209994173Y-108469181D01*
X210125875Y-108554145D01*
X210224294Y-108619422D01*
X210281750Y-108660025D01*
X210293218Y-108670202D01*
X210301153Y-108728184D01*
X210276416Y-108789131D01*
X210232499Y-108823197D01*
X210223615Y-108824170D01*
X210185027Y-108808176D01*
X210101506Y-108763120D01*
X209980535Y-108693392D01*
X209829594Y-108603381D01*
X209656164Y-108497478D01*
X209481803Y-108388919D01*
X209295996Y-108272603D01*
X209127670Y-108168010D01*
X208983916Y-108079482D01*
X208871822Y-108011361D01*
X208798480Y-107967990D01*
X208771164Y-107953668D01*
X208764407Y-107982788D01*
X208758830Y-108062272D01*
X208754978Y-108180311D01*
X208753394Y-108325094D01*
X208753381Y-108339742D01*
X208751918Y-108492218D01*
X208747930Y-108624724D01*
X208742019Y-108723359D01*
X208734789Y-108774225D01*
X208734510Y-108774993D01*
X208690089Y-108812971D01*
X208625698Y-108824170D01*
X208535756Y-108824170D01*
X208535756Y-107707048D01*
X208535843Y-107414238D01*
X208536333Y-107177508D01*
X208537566Y-106990763D01*
X208539885Y-106847905D01*
X208543629Y-106742837D01*
X208549142Y-106669460D01*
X208556763Y-106621679D01*
X208566835Y-106593396D01*
X208579699Y-106578514D01*
X208595695Y-106570935D01*
X208599426Y-106569719D01*
X208653846Y-106559307D01*
X208694001Y-106572505D01*
G37*
G36*
X215271585Y-106555354D02*
G01*
X215454426Y-106558376D01*
X215588811Y-106565067D01*
X215681600Y-106576782D01*
X215739649Y-106594873D01*
X215769818Y-106620695D01*
X215778963Y-106655601D01*
X215773965Y-106700828D01*
X215765914Y-106719866D01*
X215744728Y-106734259D01*
X215702381Y-106744814D01*
X215630850Y-106752338D01*
X215522111Y-106757635D01*
X215368139Y-106761515D01*
X215160911Y-106764782D01*
X215134066Y-106765144D01*
X214504911Y-106773560D01*
X214504911Y-107127247D01*
X214504911Y-107480934D01*
X214886646Y-107491903D01*
X215054988Y-107498131D01*
X215176492Y-107507224D01*
X215266501Y-107521769D01*
X215340354Y-107544354D01*
X215413394Y-107577565D01*
X215422653Y-107582295D01*
X215588181Y-107696650D01*
X215700783Y-107843196D01*
X215762168Y-108024551D01*
X215773660Y-108120089D01*
X215762232Y-108322304D01*
X215698868Y-108491752D01*
X215581879Y-108631145D01*
X215409576Y-108743195D01*
X215375413Y-108759379D01*
X215217854Y-108805671D01*
X215033548Y-108821715D01*
X214850544Y-108806649D01*
X214742906Y-108778822D01*
X214573121Y-108687212D01*
X214426642Y-108548282D01*
X214314026Y-108375570D01*
X214245828Y-108182612D01*
X214236471Y-108129326D01*
X214228264Y-108043803D01*
X214238913Y-108000146D01*
X214274932Y-107979280D01*
X214289081Y-107975280D01*
X214350683Y-107965180D01*
X214389088Y-107983358D01*
X214416821Y-108041827D01*
X214437794Y-108117928D01*
X214488495Y-108250338D01*
X214567435Y-108381395D01*
X214660281Y-108490745D01*
X214745241Y-108554471D01*
X214897988Y-108605697D01*
X215066027Y-108621646D01*
X215198681Y-108604162D01*
X215345115Y-108538004D01*
X215462570Y-108435228D01*
X215542625Y-108308408D01*
X215576859Y-108170119D01*
X215564929Y-108057327D01*
X215521773Y-107939887D01*
X215462729Y-107849494D01*
X215379677Y-107782392D01*
X215264499Y-107734826D01*
X215109076Y-107703041D01*
X214905287Y-107683283D01*
X214738081Y-107674920D01*
X214302831Y-107658319D01*
X214294271Y-107149480D01*
X214292564Y-106926021D01*
X214296077Y-106761845D01*
X214304942Y-106654267D01*
X214319291Y-106600597D01*
X214321394Y-106597644D01*
X214345725Y-106582910D01*
X214395756Y-106571774D01*
X214478567Y-106563809D01*
X214601236Y-106558588D01*
X214770840Y-106555681D01*
X214994458Y-106554664D01*
X215033430Y-106554647D01*
X215271585Y-106555354D01*
G37*
G36*
X212979417Y-106598411D02*
G01*
X213221779Y-106675861D01*
X213268879Y-106698371D01*
X213385884Y-106769285D01*
X213500598Y-106858557D01*
X213601804Y-106954916D01*
X213678284Y-107047088D01*
X213718821Y-107123800D01*
X213721988Y-107153720D01*
X213692823Y-107218859D01*
X213635274Y-107233426D01*
X213555556Y-107198514D01*
X213459885Y-107115216D01*
X213451417Y-107106156D01*
X213347715Y-107010171D01*
X213224037Y-106918055D01*
X213161491Y-106879823D01*
X213065475Y-106832090D01*
X212978644Y-106804577D01*
X212876614Y-106791906D01*
X212748363Y-106788736D01*
X212534067Y-106804426D01*
X212355201Y-106858325D01*
X212193069Y-106958035D01*
X212076870Y-107061793D01*
X211943557Y-107220574D01*
X211860857Y-107388182D01*
X211821769Y-107581897D01*
X211816326Y-107704953D01*
X211832955Y-107908801D01*
X211889247Y-108082234D01*
X211992945Y-108244184D01*
X212074826Y-108337147D01*
X212223041Y-108464879D01*
X212390096Y-108550507D01*
X212586800Y-108602783D01*
X212819435Y-108616253D01*
X213042824Y-108573463D01*
X213247165Y-108479377D01*
X213422654Y-108338958D01*
X213559489Y-108157170D01*
X213592350Y-108093570D01*
X213640311Y-107988880D01*
X213667492Y-107912562D01*
X213667449Y-107859937D01*
X213633737Y-107826329D01*
X213559912Y-107807059D01*
X213439530Y-107797450D01*
X213266145Y-107792823D01*
X213175842Y-107791239D01*
X212686184Y-107782677D01*
X212686184Y-107704953D01*
X212686184Y-107627230D01*
X213284654Y-107618786D01*
X213883124Y-107610343D01*
X213882755Y-107727599D01*
X213852485Y-107957034D01*
X213768085Y-108182296D01*
X213637027Y-108390747D01*
X213466779Y-108569750D01*
X213323516Y-108673675D01*
X213135760Y-108757383D01*
X212915963Y-108807373D01*
X212685806Y-108821227D01*
X212466975Y-108796529D01*
X212393810Y-108777320D01*
X212257473Y-108718984D01*
X212109029Y-108630746D01*
X211971005Y-108527920D01*
X211865932Y-108425822D01*
X211852948Y-108409614D01*
X211754278Y-108269845D01*
X211689002Y-108145755D01*
X211650707Y-108017141D01*
X211632983Y-107863801D01*
X211629301Y-107704953D01*
X211630669Y-107553007D01*
X211637172Y-107444745D01*
X211652153Y-107361702D01*
X211678953Y-107285409D01*
X211720915Y-107197399D01*
X211721294Y-107196652D01*
X211861363Y-106985305D01*
X212041621Y-106814641D01*
X212252811Y-106687639D01*
X212485677Y-106607280D01*
X212730965Y-106576544D01*
X212979417Y-106598411D01*
G37*
G36*
X230010898Y-112593237D02*
G01*
X230002953Y-115275210D01*
X229313605Y-115283571D01*
X228624257Y-115291932D01*
X227686077Y-113938870D01*
X227506614Y-113680468D01*
X227337372Y-113437602D01*
X227181728Y-113215059D01*
X227043058Y-113017631D01*
X226924740Y-112850106D01*
X226830151Y-112717274D01*
X226762666Y-112623924D01*
X226725663Y-112574845D01*
X226719917Y-112568515D01*
X226713518Y-112594671D01*
X226707756Y-112678196D01*
X226702732Y-112814281D01*
X226698546Y-112998120D01*
X226695298Y-113224904D01*
X226693091Y-113489825D01*
X226692023Y-113788076D01*
X226691937Y-113905444D01*
X226691937Y-115259666D01*
X225883614Y-115259666D01*
X225075291Y-115259666D01*
X225075291Y-112585982D01*
X225075291Y-110254280D01*
X225417274Y-110254280D01*
X225417274Y-112585982D01*
X225417274Y-114917683D01*
X225883614Y-114917683D01*
X226349954Y-114917683D01*
X226349954Y-113170017D01*
X226350107Y-112793371D01*
X226350643Y-112474442D01*
X226351683Y-112208770D01*
X226353344Y-111991895D01*
X226355746Y-111819355D01*
X226359006Y-111686692D01*
X226363243Y-111589443D01*
X226368577Y-111523149D01*
X226375125Y-111483349D01*
X226383007Y-111465583D01*
X226392340Y-111465389D01*
X226395229Y-111467875D01*
X226420343Y-111500669D01*
X226477808Y-111580221D01*
X226564564Y-111702178D01*
X226677554Y-111862185D01*
X226813719Y-112055889D01*
X226970002Y-112278936D01*
X227143345Y-112526972D01*
X227330688Y-112795644D01*
X227528974Y-113080597D01*
X227617341Y-113207769D01*
X228794177Y-114902138D01*
X229220000Y-114910789D01*
X229645822Y-114919440D01*
X229637851Y-112594633D01*
X229629881Y-110269825D01*
X229194630Y-110269825D01*
X228759379Y-110269825D01*
X228751299Y-111723252D01*
X228749189Y-112017159D01*
X228746302Y-112291129D01*
X228742767Y-112539079D01*
X228738716Y-112754927D01*
X228734278Y-112932592D01*
X228729584Y-113065989D01*
X228724763Y-113149037D01*
X228720210Y-113175760D01*
X228698772Y-113150747D01*
X228645261Y-113079084D01*
X228562895Y-112965315D01*
X228454891Y-112813983D01*
X228324466Y-112629632D01*
X228174837Y-112416805D01*
X228009222Y-112180046D01*
X227830838Y-111923899D01*
X227686796Y-111716301D01*
X226676392Y-110257761D01*
X226046833Y-110256021D01*
X225417274Y-110254280D01*
X225075291Y-110254280D01*
X225075291Y-109912297D01*
X225972509Y-109912297D01*
X226869727Y-109912297D01*
X227619832Y-110988278D01*
X228369938Y-112064259D01*
X228378122Y-110996051D01*
X228386307Y-109927842D01*
X229202575Y-109919553D01*
X230018843Y-109911264D01*
X230010898Y-112593237D01*
G37*
G36*
X223933358Y-112562509D02*
G01*
X224047449Y-112955660D01*
X224156422Y-113332068D01*
X224259040Y-113687406D01*
X224354067Y-114017351D01*
X224440265Y-114317578D01*
X224516398Y-114583761D01*
X224581227Y-114811577D01*
X224633516Y-114996700D01*
X224672028Y-115134806D01*
X224695526Y-115221571D01*
X224702820Y-115252401D01*
X224690128Y-115264546D01*
X224648628Y-115273733D01*
X224572558Y-115280177D01*
X224456153Y-115284095D01*
X224293650Y-115285700D01*
X224079287Y-115285209D01*
X223870578Y-115283491D01*
X223038938Y-115275210D01*
X222943150Y-114979862D01*
X222847362Y-114684513D01*
X222004162Y-114676243D01*
X221160961Y-114667974D01*
X221095484Y-114893869D01*
X221060019Y-115015529D01*
X221028326Y-115123047D01*
X221006901Y-115194396D01*
X221005947Y-115197487D01*
X220981888Y-115275210D01*
X220154970Y-115283487D01*
X219934678Y-115284827D01*
X219735482Y-115284383D01*
X219565627Y-115282308D01*
X219433357Y-115278755D01*
X219346918Y-115273876D01*
X219314611Y-115267942D01*
X219321036Y-115235206D01*
X219343561Y-115147035D01*
X219380983Y-115007718D01*
X219414211Y-114886694D01*
X219790101Y-114886694D01*
X219820229Y-114899309D01*
X219906879Y-114908925D01*
X220044448Y-114915166D01*
X220227336Y-114917654D01*
X220251520Y-114917683D01*
X220712939Y-114917683D01*
X220746843Y-114801098D01*
X220774972Y-114703741D01*
X220810283Y-114580706D01*
X220831806Y-114505364D01*
X220882864Y-114326214D01*
X222006303Y-114334372D01*
X223129742Y-114342530D01*
X223209902Y-114622334D01*
X223290063Y-114902138D01*
X223766814Y-114910741D01*
X223948351Y-114913557D01*
X224076501Y-114913793D01*
X224160032Y-114910566D01*
X224207714Y-114902990D01*
X224228314Y-114890181D01*
X224230602Y-114871254D01*
X224228990Y-114864107D01*
X224218148Y-114826041D01*
X224191287Y-114733002D01*
X224149780Y-114589714D01*
X224094999Y-114400902D01*
X224028318Y-114171289D01*
X223951107Y-113905600D01*
X223864741Y-113608558D01*
X223770592Y-113284888D01*
X223670031Y-112939314D01*
X223564432Y-112576561D01*
X223551333Y-112531575D01*
X222888250Y-110254280D01*
X222010008Y-110254280D01*
X221131765Y-110254280D01*
X221099191Y-110355321D01*
X221080018Y-110417815D01*
X221046210Y-110531365D01*
X220999396Y-110690326D01*
X220941208Y-110889056D01*
X220873274Y-111121913D01*
X220797226Y-111383252D01*
X220714694Y-111667431D01*
X220627307Y-111968807D01*
X220536697Y-112281736D01*
X220444493Y-112600576D01*
X220352326Y-112919685D01*
X220261825Y-113233417D01*
X220174622Y-113536132D01*
X220092345Y-113822185D01*
X220016627Y-114085934D01*
X219949096Y-114321735D01*
X219891383Y-114523946D01*
X219845119Y-114686923D01*
X219811933Y-114805024D01*
X219793456Y-114872606D01*
X219790101Y-114886694D01*
X219414211Y-114886694D01*
X219432099Y-114821542D01*
X219495706Y-114592796D01*
X219570603Y-114325768D01*
X219655587Y-114024745D01*
X219749455Y-113694017D01*
X219851005Y-113337871D01*
X219959034Y-112960595D01*
X220066721Y-112585982D01*
X220832273Y-109927842D01*
X221997785Y-109919914D01*
X223163296Y-109911985D01*
X223933358Y-112562509D01*
G37*
G36*
X213976392Y-111769871D02*
G01*
X213960848Y-113627475D01*
X213877553Y-113855503D01*
X213771246Y-114107074D01*
X213644266Y-114325395D01*
X213482828Y-114531795D01*
X213348449Y-114674106D01*
X213072644Y-114907420D01*
X212767646Y-115086387D01*
X212436756Y-115209670D01*
X212083275Y-115275936D01*
X211831227Y-115287744D01*
X211677881Y-115281515D01*
X211519730Y-115266895D01*
X211388556Y-115246908D01*
X211377470Y-115244584D01*
X211046013Y-115141549D01*
X210734535Y-114984098D01*
X210451303Y-114778640D01*
X210204580Y-114531588D01*
X210002633Y-114249351D01*
X209935134Y-114125827D01*
X209825334Y-113876523D01*
X209755353Y-113638194D01*
X209718480Y-113383973D01*
X209713975Y-113301037D01*
X210053669Y-113301037D01*
X210075700Y-113431437D01*
X210152933Y-113720072D01*
X210282305Y-114003982D01*
X210454970Y-114266317D01*
X210601195Y-114432444D01*
X210792399Y-114589777D01*
X211026305Y-114728536D01*
X211284169Y-114839670D01*
X211547250Y-114914133D01*
X211629146Y-114928688D01*
X211752359Y-114935924D01*
X211911827Y-114929958D01*
X212083547Y-114912910D01*
X212243514Y-114886905D01*
X212327031Y-114866996D01*
X212638412Y-114748204D01*
X212914641Y-114578332D01*
X213154458Y-114358428D01*
X213356600Y-114089543D01*
X213442475Y-113938368D01*
X213483251Y-113857339D01*
X213517776Y-113781181D01*
X213546571Y-113704078D01*
X213570157Y-113620215D01*
X213589055Y-113523775D01*
X213603785Y-113408942D01*
X213614870Y-113269901D01*
X213622830Y-113100835D01*
X213628185Y-112895928D01*
X213631458Y-112649364D01*
X213633169Y-112355327D01*
X213633839Y-112008001D01*
X213633950Y-111800975D01*
X213634409Y-110254280D01*
X212235389Y-110254280D01*
X210836368Y-110254280D01*
X210836368Y-110704620D01*
X210836368Y-111154960D01*
X211776821Y-111163188D01*
X212717274Y-111171416D01*
X212717274Y-112275088D01*
X212717193Y-112566125D01*
X212716686Y-112801780D01*
X212715355Y-112988852D01*
X212712805Y-113134139D01*
X212708637Y-113244437D01*
X212702456Y-113326545D01*
X212693864Y-113387260D01*
X212682464Y-113433380D01*
X212667860Y-113471702D01*
X212649654Y-113509024D01*
X212644666Y-113518662D01*
X212511370Y-113714965D01*
X212343309Y-113866159D01*
X212149175Y-113968972D01*
X211937659Y-114020128D01*
X211717453Y-114016355D01*
X211497249Y-113954379D01*
X211492879Y-113952512D01*
X211342818Y-113864864D01*
X211203947Y-113742475D01*
X211091791Y-113601969D01*
X211021871Y-113459973D01*
X211016788Y-113442625D01*
X210978918Y-113301037D01*
X210516294Y-113301037D01*
X210053669Y-113301037D01*
X209713975Y-113301037D01*
X209709753Y-113223313D01*
X209701607Y-112943509D01*
X210447751Y-112934749D01*
X210660636Y-112932978D01*
X210855775Y-112932732D01*
X211023580Y-112933912D01*
X211154462Y-112936420D01*
X211238831Y-112940157D01*
X211263846Y-112943114D01*
X211305998Y-112961524D01*
X211326863Y-113001410D01*
X211333515Y-113080263D01*
X211333797Y-113116091D01*
X211356173Y-113305257D01*
X211424688Y-113455358D01*
X211525849Y-113559754D01*
X211676395Y-113638484D01*
X211841016Y-113664480D01*
X212005067Y-113639653D01*
X212153903Y-113565917D01*
X212259241Y-113463961D01*
X212344201Y-113352633D01*
X212353300Y-112440788D01*
X212362399Y-111528944D01*
X211428392Y-111528944D01*
X210494385Y-111528944D01*
X210494385Y-110720620D01*
X210494385Y-109912297D01*
X212243161Y-109912282D01*
X213991937Y-109912267D01*
X213976392Y-111769871D01*
G37*
G36*
X218943141Y-111660554D02*
G01*
X218940748Y-112035148D01*
X218938455Y-112352996D01*
X218936043Y-112619531D01*
X218933290Y-112840183D01*
X218929978Y-113020385D01*
X218925885Y-113165570D01*
X218920791Y-113281168D01*
X218914476Y-113372612D01*
X218906720Y-113445334D01*
X218897302Y-113504765D01*
X218886003Y-113556339D01*
X218872601Y-113605486D01*
X218862966Y-113637692D01*
X218725354Y-113990854D01*
X218539439Y-114311477D01*
X218309948Y-114594849D01*
X218041613Y-114836257D01*
X217739161Y-115030988D01*
X217407321Y-115174332D01*
X217282903Y-115212089D01*
X217179682Y-115232815D01*
X217039430Y-115251368D01*
X216879121Y-115266587D01*
X216715723Y-115277312D01*
X216566209Y-115282382D01*
X216447550Y-115280635D01*
X216385817Y-115273452D01*
X216320816Y-115259512D01*
X216221475Y-115239358D01*
X216152647Y-115225804D01*
X216048925Y-115197246D01*
X215912187Y-115148147D01*
X215764510Y-115086787D01*
X215688922Y-115051916D01*
X215551369Y-114982236D01*
X215439051Y-114914517D01*
X215334514Y-114835924D01*
X215220303Y-114733617D01*
X215111075Y-114626905D01*
X214885172Y-114378798D01*
X214712407Y-114133153D01*
X214586358Y-113876119D01*
X214500600Y-113593841D01*
X214448710Y-113272470D01*
X214439870Y-113179563D01*
X214433782Y-113072636D01*
X214428494Y-112911840D01*
X214424105Y-112705480D01*
X214420714Y-112461861D01*
X214418418Y-112189289D01*
X214417316Y-111896069D01*
X214417508Y-111590507D01*
X214418464Y-111373497D01*
X214425218Y-110254280D01*
X214784715Y-110254280D01*
X214785255Y-111738797D01*
X214785640Y-112112441D01*
X214786893Y-112429972D01*
X214789599Y-112697454D01*
X214794344Y-112920952D01*
X214801714Y-113106530D01*
X214812295Y-113260253D01*
X214826674Y-113388185D01*
X214845435Y-113496391D01*
X214869165Y-113590936D01*
X214898449Y-113677885D01*
X214933874Y-113763301D01*
X214976026Y-113853249D01*
X214992868Y-113887721D01*
X215149950Y-114141989D01*
X215356119Y-114375310D01*
X215599314Y-114578017D01*
X215867476Y-114740443D01*
X216148543Y-114852919D01*
X216221571Y-114872625D01*
X216387935Y-114899690D01*
X216588946Y-114912647D01*
X216800604Y-114911593D01*
X216998910Y-114896623D01*
X217155871Y-114868881D01*
X217461621Y-114758798D01*
X217746210Y-114595915D01*
X218000487Y-114387744D01*
X218215303Y-114141799D01*
X218381508Y-113865591D01*
X218383876Y-113860645D01*
X218445348Y-113721215D01*
X218499224Y-113580315D01*
X218536480Y-113462166D01*
X218543726Y-113431636D01*
X218552556Y-113355056D01*
X218560134Y-113218642D01*
X218566415Y-113024730D01*
X218571350Y-112775652D01*
X218574892Y-112473743D01*
X218576995Y-112121337D01*
X218577616Y-111760584D01*
X218577616Y-110254280D01*
X218128203Y-110254280D01*
X217678790Y-110254280D01*
X217669635Y-111769886D01*
X217660480Y-113285492D01*
X217573239Y-113463150D01*
X217442585Y-113664606D01*
X217275671Y-113821929D01*
X217081534Y-113933584D01*
X216869213Y-113998032D01*
X216647744Y-114013737D01*
X216426166Y-113979161D01*
X216213516Y-113892768D01*
X216018832Y-113753019D01*
X215995911Y-113731433D01*
X215907905Y-113628976D01*
X215823550Y-113503470D01*
X215784280Y-113430225D01*
X215701851Y-113254403D01*
X215692186Y-111754341D01*
X215682521Y-110254280D01*
X215233618Y-110254280D01*
X214784715Y-110254280D01*
X214425218Y-110254280D01*
X214427188Y-109927842D01*
X215243283Y-109919554D01*
X216059379Y-109911265D01*
X216060062Y-111536200D01*
X216060329Y-111897494D01*
X216060921Y-112201957D01*
X216062016Y-112454935D01*
X216063792Y-112661776D01*
X216066426Y-112827825D01*
X216070098Y-112958431D01*
X216074984Y-113058940D01*
X216081264Y-113134698D01*
X216089115Y-113191054D01*
X216098715Y-113233353D01*
X216110242Y-113266943D01*
X216118320Y-113285492D01*
X216220755Y-113441653D01*
X216356656Y-113555301D01*
X216514950Y-113625590D01*
X216684561Y-113651672D01*
X216854418Y-113632701D01*
X217013446Y-113567830D01*
X217150571Y-113456212D01*
X217215890Y-113369421D01*
X217287408Y-113254403D01*
X217302953Y-111591122D01*
X217318498Y-109927842D01*
X218136258Y-109919550D01*
X218954018Y-109911258D01*
X218943141Y-111660554D01*
G37*
G36*
X235002486Y-112562665D02*
G01*
X235116514Y-112955810D01*
X235225418Y-113332210D01*
X235327962Y-113687541D01*
X235422909Y-114017477D01*
X235509024Y-114317693D01*
X235585070Y-114583864D01*
X235649813Y-114811665D01*
X235702016Y-114996771D01*
X235740443Y-115134857D01*
X235763858Y-115221598D01*
X235771079Y-115252401D01*
X235758224Y-115264548D01*
X235716547Y-115273736D01*
X235640284Y-115280181D01*
X235523671Y-115284096D01*
X235360944Y-115285699D01*
X235146339Y-115285203D01*
X234938387Y-115283491D01*
X234106747Y-115275210D01*
X234011651Y-114979862D01*
X233916554Y-114684513D01*
X233073548Y-114676245D01*
X232230542Y-114667977D01*
X232179975Y-114847236D01*
X232144161Y-114971179D01*
X232107674Y-115092810D01*
X232089552Y-115150853D01*
X232049697Y-115275210D01*
X231222779Y-115283487D01*
X231002533Y-115284827D01*
X230803424Y-115284383D01*
X230633688Y-115282309D01*
X230501561Y-115278757D01*
X230415278Y-115273878D01*
X230383127Y-115267942D01*
X230390252Y-115236622D01*
X230413112Y-115150746D01*
X230450225Y-115015503D01*
X230484925Y-114890704D01*
X230857910Y-114890704D01*
X230887202Y-114900113D01*
X230967896Y-114908094D01*
X231089221Y-114914019D01*
X231240406Y-114917262D01*
X231322044Y-114917683D01*
X231786178Y-114917683D01*
X231837125Y-114738919D01*
X231871907Y-114617295D01*
X231905694Y-114499816D01*
X231921976Y-114443570D01*
X231955879Y-114326985D01*
X233085720Y-114326985D01*
X233397751Y-114327488D01*
X233652027Y-114329092D01*
X233852965Y-114331944D01*
X234004983Y-114336188D01*
X234112496Y-114341972D01*
X234179922Y-114349440D01*
X234211677Y-114358738D01*
X234215560Y-114364243D01*
X234224186Y-114409428D01*
X234247190Y-114497747D01*
X234280262Y-114613029D01*
X234294283Y-114659591D01*
X234373005Y-114917683D01*
X234841717Y-114917683D01*
X235310428Y-114917683D01*
X235292692Y-114847732D01*
X235281324Y-114807197D01*
X235253967Y-114711758D01*
X235212013Y-114566211D01*
X235156850Y-114375355D01*
X235089869Y-114143985D01*
X235012458Y-113876898D01*
X234926008Y-113578893D01*
X234831908Y-113254764D01*
X234731547Y-112909311D01*
X234626316Y-112547329D01*
X234620901Y-112528708D01*
X234515985Y-112167773D01*
X234416273Y-111824423D01*
X234323107Y-111503297D01*
X234237828Y-111209033D01*
X234161777Y-110946269D01*
X234096296Y-110719644D01*
X234042727Y-110533797D01*
X234002410Y-110393367D01*
X233976687Y-110302991D01*
X233966900Y-110267309D01*
X233966845Y-110266957D01*
X233937057Y-110263699D01*
X233852896Y-110260750D01*
X233722169Y-110258224D01*
X233552680Y-110256232D01*
X233352237Y-110254886D01*
X233128644Y-110254297D01*
X233082894Y-110254280D01*
X232824431Y-110254526D01*
X232621353Y-110255538D01*
X232466867Y-110257727D01*
X232354180Y-110261501D01*
X232276499Y-110267273D01*
X232227031Y-110275453D01*
X232198983Y-110286450D01*
X232185563Y-110300675D01*
X232182348Y-110308687D01*
X232158676Y-110387818D01*
X232120844Y-110516222D01*
X232070467Y-110688308D01*
X232009161Y-110898488D01*
X231938541Y-111141174D01*
X231860223Y-111410778D01*
X231775821Y-111701709D01*
X231686952Y-112008380D01*
X231595231Y-112325203D01*
X231502273Y-112646588D01*
X231409693Y-112966947D01*
X231319107Y-113280691D01*
X231232131Y-113582232D01*
X231150379Y-113865980D01*
X231075468Y-114126349D01*
X231009012Y-114357747D01*
X230952627Y-114554588D01*
X230907928Y-114711282D01*
X230876531Y-114822241D01*
X230860051Y-114881877D01*
X230857910Y-114890704D01*
X230484925Y-114890704D01*
X230500111Y-114836086D01*
X230561288Y-114617686D01*
X230632275Y-114365493D01*
X230711592Y-114084698D01*
X230797756Y-113780494D01*
X230889288Y-113458070D01*
X230984706Y-113122618D01*
X231082530Y-112779330D01*
X231181277Y-112433395D01*
X231279468Y-112090006D01*
X231375620Y-111754353D01*
X231468254Y-111431628D01*
X231555887Y-111127021D01*
X231637040Y-110845724D01*
X231710230Y-110592928D01*
X231773977Y-110373823D01*
X231826800Y-110193602D01*
X231867218Y-110057455D01*
X231893750Y-109970573D01*
X231900015Y-109951159D01*
X231916972Y-109940644D01*
X231963329Y-109932064D01*
X232043874Y-109925258D01*
X232163395Y-109920069D01*
X232326678Y-109916338D01*
X232538513Y-109913907D01*
X232803687Y-109912616D01*
X233072919Y-109912297D01*
X234232841Y-109912297D01*
X235002486Y-112562665D01*
G37*
G36*
X129967573Y-109603112D02*
G01*
X130205189Y-109637165D01*
X130427120Y-109701861D01*
X130659344Y-109803016D01*
X130689648Y-109818140D01*
X131002097Y-110014084D01*
X131279468Y-110264545D01*
X131514315Y-110559437D01*
X131699188Y-110888674D01*
X131826641Y-111242171D01*
X131863513Y-111407780D01*
X131887189Y-111539522D01*
X129688292Y-111539522D01*
X127489396Y-111539522D01*
X127513072Y-111407780D01*
X127608266Y-111066585D01*
X127617230Y-111047683D01*
X128156104Y-111047683D01*
X129686306Y-111047683D01*
X130036164Y-111046968D01*
X130351395Y-111044903D01*
X130626397Y-111041603D01*
X130855565Y-111037186D01*
X131033295Y-111031770D01*
X131153984Y-111025471D01*
X131212027Y-111018406D01*
X131216508Y-111015706D01*
X131193934Y-110966343D01*
X131134343Y-110881643D01*
X131049929Y-110776419D01*
X130952891Y-110665483D01*
X130855422Y-110563648D01*
X130805043Y-110515976D01*
X130565113Y-110331080D01*
X130314520Y-110203674D01*
X130040032Y-110129339D01*
X129728416Y-110103657D01*
X129578701Y-110106518D01*
X129403105Y-110116712D01*
X129274043Y-110132419D01*
X129167786Y-110158910D01*
X129060605Y-110201457D01*
X128981046Y-110239313D01*
X128821893Y-110335326D01*
X128648362Y-110468511D01*
X128479080Y-110621852D01*
X128332668Y-110778334D01*
X128227752Y-110920942D01*
X128219570Y-110935005D01*
X128156104Y-111047683D01*
X127617230Y-111047683D01*
X127765090Y-110735900D01*
X127974942Y-110428258D01*
X128229218Y-110156190D01*
X128519316Y-109932231D01*
X128531135Y-109924707D01*
X128830723Y-109762411D01*
X129132282Y-109657436D01*
X129456415Y-109603893D01*
X129688292Y-109593883D01*
X129967573Y-109603112D01*
G37*
G36*
X123488024Y-107710511D02*
G01*
X123801020Y-107712035D01*
X124058909Y-107715662D01*
X124269271Y-107722282D01*
X124439683Y-107732783D01*
X124577723Y-107748057D01*
X124690970Y-107768991D01*
X124787001Y-107796475D01*
X124873394Y-107831399D01*
X124957728Y-107874652D01*
X125047581Y-107927124D01*
X125068514Y-107939795D01*
X125345986Y-108146422D01*
X125575040Y-108395566D01*
X125752074Y-108678377D01*
X125873484Y-108986007D01*
X125935669Y-109309608D01*
X125935025Y-109640332D01*
X125879333Y-109931261D01*
X125751463Y-110267425D01*
X125573096Y-110555229D01*
X125342247Y-110797145D01*
X125056933Y-110995642D01*
X124998092Y-111027765D01*
X124888089Y-111083278D01*
X124783642Y-111129096D01*
X124676736Y-111166145D01*
X124559356Y-111195350D01*
X124423488Y-111217636D01*
X124261115Y-111233928D01*
X124064224Y-111245151D01*
X123824799Y-111252230D01*
X123534826Y-111256090D01*
X123186289Y-111257656D01*
X123004544Y-111257861D01*
X121731031Y-111258471D01*
X121731031Y-109484336D01*
X121731031Y-108198480D01*
X122222871Y-108198480D01*
X122222871Y-109466354D01*
X122222871Y-110734228D01*
X123373424Y-110724081D01*
X124523977Y-110713935D01*
X124719210Y-110615005D01*
X124933114Y-110485861D01*
X125099775Y-110332952D01*
X125236591Y-110138166D01*
X125307210Y-110002886D01*
X125372438Y-109859941D01*
X125411117Y-109749455D01*
X125429851Y-109641936D01*
X125435239Y-109507892D01*
X125435073Y-109431639D01*
X125426854Y-109239972D01*
X125403188Y-109094665D01*
X125361339Y-108974930D01*
X125244608Y-108780856D01*
X125078685Y-108591303D01*
X124882921Y-108426237D01*
X124745747Y-108339849D01*
X124523977Y-108219605D01*
X123373424Y-108209043D01*
X122222871Y-108198480D01*
X121731031Y-108198480D01*
X121731031Y-107710200D01*
X123112345Y-107710200D01*
X123488024Y-107710511D01*
G37*
G36*
X118010190Y-106656475D02*
G01*
X118529491Y-106656671D01*
X118982981Y-106657228D01*
X119375111Y-106658222D01*
X119710332Y-106659733D01*
X119993096Y-106661839D01*
X120227854Y-106664617D01*
X120419056Y-106668147D01*
X120571155Y-106672506D01*
X120688601Y-106677773D01*
X120775845Y-106684026D01*
X120837339Y-106691343D01*
X120877533Y-106699803D01*
X120896971Y-106707249D01*
X120971481Y-106737332D01*
X121040295Y-106733946D01*
X121120411Y-106704945D01*
X121158058Y-106692709D01*
X121211077Y-106682619D01*
X121285465Y-106674542D01*
X121387220Y-106668344D01*
X121522340Y-106663889D01*
X121696823Y-106661045D01*
X121916668Y-106659677D01*
X122187871Y-106659651D01*
X122516431Y-106660832D01*
X122908346Y-106663087D01*
X122973282Y-106663512D01*
X124699634Y-106674941D01*
X125021691Y-106783909D01*
X125382616Y-106927008D01*
X125692483Y-107097517D01*
X125968261Y-107305271D01*
X126051418Y-107380597D01*
X126321364Y-107659605D01*
X126535302Y-107939179D01*
X126705203Y-108237654D01*
X126843039Y-108573364D01*
X126857196Y-108614656D01*
X126918388Y-108850542D01*
X126960248Y-109123323D01*
X126979978Y-109403397D01*
X126974784Y-109661162D01*
X126964788Y-109753610D01*
X126949091Y-109877777D01*
X126940843Y-109971471D01*
X126941625Y-110016171D01*
X126942286Y-110017260D01*
X126967249Y-109998805D01*
X127015828Y-109937167D01*
X127045070Y-109894689D01*
X127258289Y-109625801D01*
X127529609Y-109369135D01*
X127846980Y-109133020D01*
X128198349Y-108925784D01*
X128571664Y-108755754D01*
X128817444Y-108670028D01*
X128940081Y-108634165D01*
X129047080Y-108608699D01*
X129154832Y-108591902D01*
X129279726Y-108582044D01*
X129438150Y-108577395D01*
X129646495Y-108576226D01*
X129705858Y-108576272D01*
X129929743Y-108577561D01*
X130099878Y-108581866D01*
X130232763Y-108590946D01*
X130344899Y-108606557D01*
X130452787Y-108630459D01*
X130572928Y-108664408D01*
X130594563Y-108670942D01*
X131013017Y-108829044D01*
X131407334Y-109039011D01*
X131766958Y-109293325D01*
X132081334Y-109584465D01*
X132339907Y-109904913D01*
X132352146Y-109923009D01*
X132481239Y-110115763D01*
X132481434Y-108658279D01*
X132482319Y-108311780D01*
X132484775Y-107994318D01*
X132488656Y-107712660D01*
X132493812Y-107473571D01*
X132500094Y-107283820D01*
X132507353Y-107150172D01*
X132515442Y-107079394D01*
X132516222Y-107076277D01*
X132579329Y-106948616D01*
X132686134Y-106823501D01*
X132813551Y-106725303D01*
X132878754Y-106693544D01*
X132970838Y-106673606D01*
X133105810Y-106661563D01*
X133261988Y-106657354D01*
X133417688Y-106660915D01*
X133551227Y-106672184D01*
X133640921Y-106691097D01*
X133651667Y-106695780D01*
X133805033Y-106806274D01*
X133930872Y-106955718D01*
X133951312Y-106990007D01*
X133967294Y-107026972D01*
X133980476Y-107079209D01*
X133991276Y-107154009D01*
X134000113Y-107258664D01*
X134007406Y-107400466D01*
X134013571Y-107586709D01*
X134019029Y-107824684D01*
X134024197Y-108121683D01*
X134027020Y-108309547D01*
X134044586Y-109523694D01*
X134958002Y-108965247D01*
X135205254Y-108814012D01*
X135498343Y-108634626D01*
X135823225Y-108435693D01*
X136165853Y-108225814D01*
X136512182Y-108013595D01*
X136848168Y-107807637D01*
X137118583Y-107641806D01*
X137447207Y-107440721D01*
X137722439Y-107274058D01*
X137950500Y-107139051D01*
X138137612Y-107032930D01*
X138289996Y-106952926D01*
X138413871Y-106896272D01*
X138515460Y-106860198D01*
X138600983Y-106841936D01*
X138676660Y-106838718D01*
X138748714Y-106847775D01*
X138823364Y-106866338D01*
X138846073Y-106873010D01*
X138991070Y-106948495D01*
X139129876Y-107077722D01*
X139250608Y-107244404D01*
X139341385Y-107432250D01*
X139389388Y-107617869D01*
X139396364Y-107770060D01*
X139368280Y-107904589D01*
X139298955Y-108029654D01*
X139182205Y-108153451D01*
X139011847Y-108284176D01*
X138781700Y-108430025D01*
X138772787Y-108435326D01*
X138670004Y-108496909D01*
X138520917Y-108587027D01*
X138331495Y-108702024D01*
X138107705Y-108838241D01*
X137855515Y-108992021D01*
X137580893Y-109159707D01*
X137289807Y-109337641D01*
X136988226Y-109522166D01*
X136682116Y-109709624D01*
X136377445Y-109896358D01*
X136080182Y-110078710D01*
X135796295Y-110253024D01*
X135531751Y-110415641D01*
X135292518Y-110562904D01*
X135084564Y-110691155D01*
X134913857Y-110796738D01*
X134786364Y-110875995D01*
X134708055Y-110925268D01*
X134684781Y-110940682D01*
X134708752Y-110963093D01*
X134787441Y-111018884D01*
X134915655Y-111104719D01*
X135088207Y-111217261D01*
X135299907Y-111353174D01*
X135545563Y-111509122D01*
X135819987Y-111681770D01*
X136117989Y-111867779D01*
X136371088Y-112024714D01*
X136837389Y-112313135D01*
X137247571Y-112567219D01*
X137605373Y-112789426D01*
X137914531Y-112982215D01*
X138178784Y-113148047D01*
X138401869Y-113289381D01*
X138587526Y-113408677D01*
X138739492Y-113508395D01*
X138861504Y-113590994D01*
X138957302Y-113658934D01*
X139030622Y-113714675D01*
X139085203Y-113760677D01*
X139124783Y-113799399D01*
X139153099Y-113833302D01*
X139173891Y-113864845D01*
X139177799Y-113871663D01*
X139261660Y-114075876D01*
X139277363Y-114273704D01*
X139225262Y-114474338D01*
X139203006Y-114523321D01*
X139066343Y-114746203D01*
X138904839Y-114904856D01*
X138715732Y-115001754D01*
X138648347Y-115020255D01*
X138505351Y-115044246D01*
X138392284Y-115040504D01*
X138315065Y-115022285D01*
X138271420Y-115003500D01*
X138194442Y-114962853D01*
X138081948Y-114899000D01*
X137931756Y-114810600D01*
X137741682Y-114696308D01*
X137509544Y-114554783D01*
X137233158Y-114384681D01*
X136910341Y-114184660D01*
X136538910Y-113953376D01*
X136116682Y-113689488D01*
X135641474Y-113391651D01*
X135111104Y-113058524D01*
X134606688Y-112741203D01*
X134044586Y-112387377D01*
X134027020Y-113519652D01*
X134021923Y-113844680D01*
X134016770Y-114107339D01*
X134010065Y-114315509D01*
X134000314Y-114477070D01*
X133986022Y-114599899D01*
X133965695Y-114691877D01*
X133937836Y-114760883D01*
X133900951Y-114814797D01*
X133853546Y-114861498D01*
X133794125Y-114908864D01*
X133758280Y-114936146D01*
X133686819Y-114985146D01*
X133615419Y-115016028D01*
X133523527Y-115033977D01*
X133390586Y-115044182D01*
X133317329Y-115047415D01*
X133129291Y-115052019D01*
X132993907Y-115045981D01*
X132893918Y-115025659D01*
X132812067Y-114987411D01*
X132731093Y-114927594D01*
X132724867Y-114922383D01*
X132638425Y-114839453D01*
X132574720Y-114749041D01*
X132530497Y-114639072D01*
X132502503Y-114497471D01*
X132487483Y-114312162D01*
X132482182Y-114071070D01*
X132482010Y-114021204D01*
X132481239Y-113499151D01*
X132328611Y-113706480D01*
X132015830Y-114075763D01*
X131663598Y-114388835D01*
X131275240Y-114643273D01*
X130854083Y-114836658D01*
X130706272Y-114887358D01*
X130241453Y-114999589D01*
X129778629Y-115045473D01*
X129323492Y-115027582D01*
X128881732Y-114948493D01*
X128459043Y-114810779D01*
X128061116Y-114617015D01*
X127693643Y-114369776D01*
X127362317Y-114071637D01*
X127072828Y-113725171D01*
X126830869Y-113332953D01*
X126712647Y-113080972D01*
X126621029Y-112843530D01*
X126556142Y-112624683D01*
X126511232Y-112396147D01*
X126479547Y-112129638D01*
X126475947Y-112089582D01*
X126467583Y-111919107D01*
X126467858Y-111720312D01*
X126471379Y-111627613D01*
X126968532Y-111627613D01*
X126968588Y-111805482D01*
X126973120Y-111953560D01*
X126983264Y-112161011D01*
X126998295Y-112321138D01*
X127021968Y-112456870D01*
X127058036Y-112591135D01*
X127096648Y-112708035D01*
X127269672Y-113110421D01*
X127493894Y-113465970D01*
X127770701Y-113776102D01*
X128101480Y-114042236D01*
X128487618Y-114265794D01*
X128718628Y-114368902D01*
X129063949Y-114475772D01*
X129442694Y-114533520D01*
X129837183Y-114541239D01*
X130229734Y-114498026D01*
X130423227Y-114456151D01*
X130811851Y-114320742D01*
X131175438Y-114119904D01*
X131513348Y-113854099D01*
X131824939Y-113523790D01*
X131963793Y-113344083D01*
X132051511Y-113210690D01*
X132088141Y-113112739D01*
X132072987Y-113036705D01*
X132005353Y-112969062D01*
X131942398Y-112928694D01*
X131842374Y-112876459D01*
X131759809Y-112844300D01*
X131732718Y-112839384D01*
X131684849Y-112866182D01*
X131613237Y-112936623D01*
X131532947Y-113035777D01*
X131528853Y-113041390D01*
X131387286Y-113227631D01*
X131259866Y-113371471D01*
X131126983Y-113492132D01*
X130969033Y-113608837D01*
X130908864Y-113649231D01*
X130577383Y-113827463D01*
X130217646Y-113947703D01*
X129841976Y-114008496D01*
X129462702Y-114008386D01*
X129092150Y-113945916D01*
X128901637Y-113886337D01*
X128599547Y-113741769D01*
X128310483Y-113540452D01*
X128050029Y-113295855D01*
X127833765Y-113021447D01*
X127758672Y-112898417D01*
X127698994Y-112775637D01*
X127636428Y-112621495D01*
X127626487Y-112593464D01*
X128156104Y-112593464D01*
X128219570Y-112702078D01*
X128399353Y-112944323D01*
X128633493Y-113156852D01*
X128908784Y-113329221D01*
X129135735Y-113426359D01*
X129255967Y-113464494D01*
X129365538Y-113487843D01*
X129486969Y-113499001D01*
X129642783Y-113500559D01*
X129758555Y-113498065D01*
X129942648Y-113490703D01*
X130077428Y-113478059D01*
X130183831Y-113456384D01*
X130282791Y-113421926D01*
X130350802Y-113391935D01*
X130651360Y-113222574D01*
X130896342Y-113020243D01*
X131029741Y-112864007D01*
X131102405Y-112767763D01*
X131160623Y-112697309D01*
X131189557Y-112669582D01*
X131218725Y-112651734D01*
X131214269Y-112636748D01*
X131171862Y-112624404D01*
X131087178Y-112614485D01*
X130955892Y-112606770D01*
X130773677Y-112601041D01*
X130536207Y-112597079D01*
X130239157Y-112594664D01*
X129878199Y-112593578D01*
X129686306Y-112593464D01*
X128156104Y-112593464D01*
X127626487Y-112593464D01*
X127615365Y-112562105D01*
X132354131Y-112562105D01*
X132356303Y-112585310D01*
X132393410Y-112628596D01*
X132444234Y-112680389D01*
X132469118Y-112698859D01*
X132478984Y-112669290D01*
X132481239Y-112628596D01*
X132457463Y-112570834D01*
X132405531Y-112558333D01*
X132354131Y-112562105D01*
X127615365Y-112562105D01*
X127577800Y-112456187D01*
X127529934Y-112299906D01*
X127499657Y-112172850D01*
X127492580Y-112111114D01*
X127505102Y-112102157D01*
X127545452Y-112094409D01*
X127617810Y-112087795D01*
X127726355Y-112082238D01*
X127875267Y-112077661D01*
X128068724Y-112073987D01*
X128310906Y-112071141D01*
X128605993Y-112069046D01*
X128958162Y-112067624D01*
X129371595Y-112066801D01*
X129850469Y-112066499D01*
X129929911Y-112066493D01*
X130407885Y-112066354D01*
X130820410Y-112065866D01*
X131172299Y-112064925D01*
X131468365Y-112063426D01*
X131713422Y-112061266D01*
X131912282Y-112058339D01*
X132069759Y-112054543D01*
X132190666Y-112049771D01*
X132279816Y-112043921D01*
X132342022Y-112036887D01*
X132382098Y-112028565D01*
X132404857Y-112018851D01*
X132411900Y-112012683D01*
X132433801Y-111960979D01*
X132442861Y-111867213D01*
X132439750Y-111720213D01*
X132434647Y-111635021D01*
X132371597Y-111191121D01*
X132246483Y-110777181D01*
X132234958Y-110753373D01*
X132970371Y-110753373D01*
X132970831Y-111193372D01*
X132971841Y-111629146D01*
X132973397Y-112055004D01*
X132975495Y-112465251D01*
X132978130Y-112854195D01*
X132981298Y-113216144D01*
X132984993Y-113545404D01*
X132989213Y-113836283D01*
X132993951Y-114083088D01*
X132999203Y-114280126D01*
X133004966Y-114421705D01*
X133011234Y-114502131D01*
X133015236Y-114518665D01*
X133074968Y-114543986D01*
X133175359Y-114557681D01*
X133291694Y-114559841D01*
X133399257Y-114550558D01*
X133473335Y-114529923D01*
X133489193Y-114516908D01*
X133495618Y-114473449D01*
X133502352Y-114367211D01*
X133509169Y-114205677D01*
X133515849Y-113996327D01*
X133522168Y-113746645D01*
X133527902Y-113464111D01*
X133532830Y-113156208D01*
X133535180Y-112973212D01*
X133552746Y-111473431D01*
X134501294Y-112071833D01*
X135076255Y-112434389D01*
X135594761Y-112760967D01*
X136059642Y-113053299D01*
X136473728Y-113313115D01*
X136839849Y-113542149D01*
X137160835Y-113742132D01*
X137439517Y-113914797D01*
X137678724Y-114061876D01*
X137881287Y-114185100D01*
X138050035Y-114286202D01*
X138187799Y-114366914D01*
X138297409Y-114428967D01*
X138381695Y-114474095D01*
X138443487Y-114504028D01*
X138485616Y-114520500D01*
X138510067Y-114525256D01*
X138593792Y-114506555D01*
X138664177Y-114440961D01*
X138690713Y-114402789D01*
X138741482Y-114307532D01*
X138768437Y-114224051D01*
X138769759Y-114208939D01*
X138763508Y-114187291D01*
X138742555Y-114158615D01*
X138703594Y-114120758D01*
X138643324Y-114071563D01*
X138558440Y-114008877D01*
X138445639Y-113930545D01*
X138301617Y-113834411D01*
X138123072Y-113718322D01*
X137906699Y-113580122D01*
X137649195Y-113417657D01*
X137347257Y-113228771D01*
X136997581Y-113011311D01*
X136596864Y-112763121D01*
X136141802Y-112482047D01*
X135783590Y-112261145D01*
X135443408Y-112051261D01*
X135120274Y-111851498D01*
X134819261Y-111665018D01*
X134545442Y-111494981D01*
X134303891Y-111344550D01*
X134099680Y-111216887D01*
X133937883Y-111115153D01*
X133823573Y-111042510D01*
X133761823Y-111002120D01*
X133752627Y-110995395D01*
X133754164Y-110980426D01*
X133780634Y-110952016D01*
X133835469Y-110907940D01*
X133922099Y-110845973D01*
X134043959Y-110763892D01*
X134204478Y-110659470D01*
X134407090Y-110530484D01*
X134655225Y-110374707D01*
X134952317Y-110189917D01*
X135301796Y-109973888D01*
X135707096Y-109724394D01*
X135825379Y-109651719D01*
X136190314Y-109427652D01*
X136548369Y-109207959D01*
X136893344Y-108996435D01*
X137219038Y-108796875D01*
X137519251Y-108613074D01*
X137787782Y-108448828D01*
X138018432Y-108307932D01*
X138204999Y-108194181D01*
X138341284Y-108111369D01*
X138392090Y-108080670D01*
X138553129Y-107980633D01*
X138693743Y-107887496D01*
X138802110Y-107809530D01*
X138866405Y-107755008D01*
X138877386Y-107741158D01*
X138892783Y-107683912D01*
X138874444Y-107612277D01*
X138823214Y-107515103D01*
X138750336Y-107410684D01*
X138677808Y-107361202D01*
X138585692Y-107354325D01*
X138566766Y-107356491D01*
X138527017Y-107375748D01*
X138434921Y-107427667D01*
X138297837Y-107507872D01*
X138123126Y-107611988D01*
X137918149Y-107735638D01*
X137690266Y-107874449D01*
X137530390Y-107972551D01*
X137286282Y-108122621D01*
X136994228Y-108301920D01*
X136666257Y-108503076D01*
X136314401Y-108718719D01*
X135950690Y-108941475D01*
X135587154Y-109163974D01*
X135235824Y-109378843D01*
X135045831Y-109494962D01*
X133552746Y-110407242D01*
X133543601Y-108824748D01*
X133540431Y-108398716D01*
X133536205Y-108040795D01*
X133530858Y-107748836D01*
X133524328Y-107520694D01*
X133516551Y-107354222D01*
X133507462Y-107247274D01*
X133497000Y-107197704D01*
X133495386Y-107195176D01*
X133432328Y-107164952D01*
X133312656Y-107149560D01*
X133251064Y-107148098D01*
X133128030Y-107152615D01*
X133056022Y-107169701D01*
X133016183Y-107204661D01*
X133009446Y-107216051D01*
X133002946Y-107262706D01*
X132997051Y-107373450D01*
X132991756Y-107542590D01*
X132987057Y-107764434D01*
X132982950Y-108033288D01*
X132979429Y-108343460D01*
X132976490Y-108689257D01*
X132974129Y-109064987D01*
X132972341Y-109464956D01*
X132971122Y-109883472D01*
X132970466Y-110314842D01*
X132970371Y-110753373D01*
X132234958Y-110753373D01*
X132062481Y-110397068D01*
X131822766Y-110054653D01*
X131530515Y-109753802D01*
X131188902Y-109498386D01*
X130801103Y-109292273D01*
X130390920Y-109145120D01*
X130160972Y-109097489D01*
X129891879Y-109069757D01*
X129607688Y-109062207D01*
X129332451Y-109075120D01*
X129090214Y-109108780D01*
X129005263Y-109128851D01*
X128583935Y-109279206D01*
X128202315Y-109485478D01*
X127864229Y-109743706D01*
X127573506Y-110049925D01*
X127333971Y-110400172D01*
X127149451Y-110790485D01*
X127034205Y-111170058D01*
X126999431Y-111334395D01*
X126978177Y-111478749D01*
X126968532Y-111627613D01*
X126471379Y-111627613D01*
X126475706Y-111513723D01*
X126490065Y-111319864D01*
X126509868Y-111159260D01*
X126528884Y-111068626D01*
X126522780Y-111055738D01*
X126486152Y-111093435D01*
X126429001Y-111170643D01*
X126224979Y-111415676D01*
X125962170Y-111648360D01*
X125791432Y-111770683D01*
X125693795Y-111841997D01*
X125627745Y-111902875D01*
X125607335Y-111940327D01*
X125607472Y-111940703D01*
X125627870Y-111979180D01*
X125679079Y-112071347D01*
X125756984Y-112209926D01*
X125857473Y-112387638D01*
X125976430Y-112597207D01*
X126109744Y-112831352D01*
X126224614Y-113032607D01*
X126408650Y-113356296D01*
X126559422Y-113625988D01*
X126679684Y-113848013D01*
X126772186Y-114028705D01*
X126839680Y-114174395D01*
X126884920Y-114291417D01*
X126910655Y-114386102D01*
X126919639Y-114464783D01*
X126914623Y-114533792D01*
X126901339Y-114589807D01*
X126833647Y-114758316D01*
X126739918Y-114881335D01*
X126610611Y-114964391D01*
X126436186Y-115013010D01*
X126207104Y-115032719D01*
X126134934Y-115033800D01*
X126013325Y-115034326D01*
X125909938Y-115031600D01*
X125820136Y-115020616D01*
X125739278Y-114996363D01*
X125662727Y-114953834D01*
X125585842Y-114888019D01*
X125503986Y-114793910D01*
X125412519Y-114666499D01*
X125306803Y-114500775D01*
X125182197Y-114291732D01*
X125034065Y-114034359D01*
X124857765Y-113723649D01*
X124757540Y-113546615D01*
X124037944Y-112276119D01*
X123139190Y-112285483D01*
X122240436Y-112294847D01*
X122222871Y-113471749D01*
X122217680Y-113808311D01*
X122212225Y-114082165D01*
X122205099Y-114300861D01*
X122194890Y-114471943D01*
X122180192Y-114602960D01*
X122159593Y-114701458D01*
X122131686Y-114774984D01*
X122095062Y-114831084D01*
X122048311Y-114877307D01*
X121990025Y-114921199D01*
X121946675Y-114951100D01*
X121871794Y-114994351D01*
X121787111Y-115021854D01*
X121672299Y-115038117D01*
X121512418Y-115047438D01*
X121323085Y-115048536D01*
X121176075Y-115036281D01*
X121096806Y-115016761D01*
X120970369Y-114934668D01*
X120854195Y-114808258D01*
X120769487Y-114662621D01*
X120749464Y-114605697D01*
X120742003Y-114542246D01*
X120735373Y-114408778D01*
X120729579Y-114205537D01*
X120724621Y-113932765D01*
X120720504Y-113590704D01*
X120717230Y-113179596D01*
X120714801Y-112699683D01*
X120713221Y-112151208D01*
X120712492Y-111534413D01*
X120712439Y-111328734D01*
X120712431Y-111174367D01*
X121199907Y-111174367D01*
X121200482Y-111610915D01*
X121201692Y-112037722D01*
X121203539Y-112449089D01*
X121206026Y-112839320D01*
X121209154Y-113202717D01*
X121212925Y-113533581D01*
X121217343Y-113826216D01*
X121222409Y-114074923D01*
X121228126Y-114274004D01*
X121234496Y-114417762D01*
X121241521Y-114500500D01*
X121246218Y-114518665D01*
X121303870Y-114543057D01*
X121403855Y-114558279D01*
X121467546Y-114560823D01*
X121579038Y-114552997D01*
X121663676Y-114533052D01*
X121688873Y-114518665D01*
X121700456Y-114487434D01*
X121709944Y-114415974D01*
X121717478Y-114299604D01*
X121723202Y-114133640D01*
X121727256Y-113913400D01*
X121729785Y-113634200D01*
X121730929Y-113291360D01*
X121731031Y-113130547D01*
X121731031Y-111784587D01*
X123035817Y-111793797D01*
X124340604Y-111803008D01*
X125099787Y-113144547D01*
X125312349Y-113517978D01*
X125492959Y-113830517D01*
X125642397Y-114083443D01*
X125761443Y-114278038D01*
X125850877Y-114415582D01*
X125911480Y-114497356D01*
X125939669Y-114523454D01*
X126041017Y-114550008D01*
X126172089Y-114560212D01*
X126295227Y-114552584D01*
X126347936Y-114539498D01*
X126391130Y-114491565D01*
X126403507Y-114434020D01*
X126385378Y-114378110D01*
X126331363Y-114263144D01*
X126242022Y-114090137D01*
X126117913Y-113860103D01*
X125959596Y-113574059D01*
X125767628Y-113233019D01*
X125542571Y-112837999D01*
X125284982Y-112390014D01*
X125142873Y-112144252D01*
X125053349Y-111988629D01*
X124978013Y-111855647D01*
X124923180Y-111756609D01*
X124895163Y-111702819D01*
X124892857Y-111696679D01*
X124922130Y-111675184D01*
X125000939Y-111630187D01*
X125115766Y-111569191D01*
X125200257Y-111526056D01*
X125501492Y-111355847D01*
X125744964Y-111172835D01*
X125943168Y-110963765D01*
X126108602Y-110715380D01*
X126253762Y-110414423D01*
X126258195Y-110403817D01*
X126362072Y-110130336D01*
X126375685Y-110081569D01*
X126895346Y-110081569D01*
X126912912Y-110099135D01*
X126930478Y-110081569D01*
X126912912Y-110064004D01*
X126895346Y-110081569D01*
X126375685Y-110081569D01*
X126429411Y-109889094D01*
X126465530Y-109655899D01*
X126475768Y-109414073D01*
X126457809Y-109103364D01*
X126400247Y-108821205D01*
X126296138Y-108538475D01*
X126236998Y-108412828D01*
X126082253Y-108161487D01*
X125875631Y-107914818D01*
X125634390Y-107690036D01*
X125375784Y-107504357D01*
X125261736Y-107439890D01*
X125146152Y-107380576D01*
X125043898Y-107330709D01*
X124947751Y-107289415D01*
X124850486Y-107255820D01*
X124744881Y-107229048D01*
X124623712Y-107208227D01*
X124479756Y-107192481D01*
X124305788Y-107180937D01*
X124094584Y-107172719D01*
X123838923Y-107166955D01*
X123531579Y-107162769D01*
X123165329Y-107159287D01*
X122926670Y-107157276D01*
X122544545Y-107154214D01*
X122226594Y-107152117D01*
X121966734Y-107151160D01*
X121758880Y-107151515D01*
X121596950Y-107153357D01*
X121474859Y-107156860D01*
X121386523Y-107162199D01*
X121325859Y-107169546D01*
X121286782Y-107179077D01*
X121263210Y-107190965D01*
X121249146Y-107205262D01*
X121241678Y-107249952D01*
X121234815Y-107358971D01*
X121228560Y-107526622D01*
X121222913Y-107747207D01*
X121217879Y-108015027D01*
X121213459Y-108324387D01*
X121209656Y-108669587D01*
X121206471Y-109044929D01*
X121203907Y-109444718D01*
X121201966Y-109863253D01*
X121200651Y-110294838D01*
X121199964Y-110733775D01*
X121199907Y-111174367D01*
X120712431Y-111174367D01*
X120712266Y-108184474D01*
X119746130Y-108194342D01*
X118779994Y-108204211D01*
X118779994Y-111366079D01*
X118779881Y-111916950D01*
X118779495Y-112401885D01*
X118778765Y-112825210D01*
X118777620Y-113191252D01*
X118775989Y-113504337D01*
X118773801Y-113768791D01*
X118770984Y-113988940D01*
X118767468Y-114169112D01*
X118763182Y-114313633D01*
X118758055Y-114426828D01*
X118752015Y-114513025D01*
X118744992Y-114576549D01*
X118736915Y-114621727D01*
X118727712Y-114652886D01*
X118725957Y-114657277D01*
X118637223Y-114819139D01*
X118520680Y-114934216D01*
X118366397Y-115007784D01*
X118164442Y-115045120D01*
X117982154Y-115052531D01*
X117811200Y-115048461D01*
X117691992Y-115034518D01*
X117606362Y-115007839D01*
X117567961Y-114987298D01*
X117424003Y-114874858D01*
X117323626Y-114733274D01*
X117288249Y-114657277D01*
X117278841Y-114628157D01*
X117270570Y-114585787D01*
X117263366Y-114525840D01*
X117257158Y-114443990D01*
X117251874Y-114335912D01*
X117247444Y-114197281D01*
X117243797Y-114023770D01*
X117240861Y-113811055D01*
X117238566Y-113554809D01*
X117236840Y-113250708D01*
X117235614Y-112894425D01*
X117234815Y-112481634D01*
X117234372Y-112008011D01*
X117234216Y-111469230D01*
X117234212Y-111364994D01*
X117234212Y-108202040D01*
X116294447Y-108201844D01*
X115972874Y-108200729D01*
X115713443Y-108196905D01*
X115508058Y-108189425D01*
X115348622Y-108177346D01*
X115227036Y-108159722D01*
X115135204Y-108135610D01*
X115065027Y-108104065D01*
X115008409Y-108064143D01*
X114992393Y-108049963D01*
X114883415Y-107933216D01*
X114813026Y-107811515D01*
X114774144Y-107665479D01*
X114759683Y-107475727D01*
X114759316Y-107438801D01*
X115267392Y-107438801D01*
X115269968Y-107555083D01*
X115283496Y-107621107D01*
X115315503Y-107656792D01*
X115356970Y-107675938D01*
X115415300Y-107684842D01*
X115535938Y-107692756D01*
X115710929Y-107699458D01*
X115932324Y-107704726D01*
X116192168Y-107708340D01*
X116482511Y-107710076D01*
X116586568Y-107710200D01*
X117726052Y-107710200D01*
X117726052Y-111093354D01*
X117726255Y-111688370D01*
X117726892Y-112216336D01*
X117728002Y-112680462D01*
X117729623Y-113083960D01*
X117731797Y-113430040D01*
X117734562Y-113721915D01*
X117737958Y-113962795D01*
X117742024Y-114155890D01*
X117746800Y-114304413D01*
X117752326Y-114411575D01*
X117758641Y-114480586D01*
X117765784Y-114514658D01*
X117768210Y-114518665D01*
X117824589Y-114541752D01*
X117925784Y-114557064D01*
X118012893Y-114560823D01*
X118135179Y-114556161D01*
X118206581Y-114538578D01*
X118246073Y-114502676D01*
X118251787Y-114492869D01*
X118258884Y-114444582D01*
X118265207Y-114327575D01*
X118270757Y-114141674D01*
X118275537Y-113886701D01*
X118279547Y-113562482D01*
X118282791Y-113168840D01*
X118285269Y-112705600D01*
X118286984Y-112172586D01*
X118287938Y-111569622D01*
X118288154Y-111067558D01*
X118288154Y-107710200D01*
X119456273Y-107709662D01*
X119737286Y-107708689D01*
X119996731Y-107706175D01*
X120226022Y-107702329D01*
X120416571Y-107697358D01*
X120559791Y-107691473D01*
X120647096Y-107684882D01*
X120670040Y-107680169D01*
X120696343Y-107633675D01*
X120707061Y-107532566D01*
X120705171Y-107408438D01*
X120694655Y-107165664D01*
X118009313Y-107156660D01*
X117491249Y-107155141D01*
X117039480Y-107154326D01*
X116650041Y-107154264D01*
X116318969Y-107155009D01*
X116042299Y-107156610D01*
X115816066Y-107159119D01*
X115636306Y-107162588D01*
X115499054Y-107167067D01*
X115400345Y-107172609D01*
X115336217Y-107179264D01*
X115302702Y-107187084D01*
X115295951Y-107191791D01*
X115280509Y-107249362D01*
X115270103Y-107351513D01*
X115267392Y-107438801D01*
X114759316Y-107438801D01*
X114759046Y-107411583D01*
X114770500Y-107191965D01*
X114809353Y-107025088D01*
X114882337Y-106896537D01*
X114996186Y-106791899D01*
X115070992Y-106743776D01*
X115220330Y-106656258D01*
X118010190Y-106656475D01*
G37*
M02*
